<svg width="87" height="87" viewBox="0 0 87 87" fill="none" xmlns="http://www.w3.org/2000/svg">
<g filter="url(#filter0_d_117_2021)">
<rect width="80" height="80" rx="16.8353" transform="matrix(-1 0 0 1 83.3672 0)" fill="white" shape-rendering="crispEdges"/>
<path d="M57.48 18.0722C57.48 16.9161 56.5428 15.979 55.3868 15.979H23.8945C18.1143 15.979 13.4286 20.6648 13.4286 26.445V53.0998C13.4286 58.88 18.1143 63.5657 23.8945 63.5657H55.3868C56.5428 63.5657 57.48 62.6286 57.48 61.4725V18.0722Z" fill="#89F667"/>
<rect width="10.8675" height="47.6689" rx="4.18639" transform="matrix(-1 0 0 1 69.8989 16.3521)" fill="#00C82B"/>
<rect width="5.89992" height="34.8385" rx="2.94996" transform="matrix(0 -1 -1 0 64.4653 14.6592)" fill="#00A123"/>
<rect width="5.89992" height="34.8385" rx="2.94996" transform="matrix(0 -1 -1 0 64.4653 71.2407)" fill="#00A123"/>
</g>
<defs>
<filter id="filter0_d_117_2021" x="0.000122547" y="0" width="86.7341" height="86.7341" filterUnits="userSpaceOnUse" color-interpolation-filters="sRGB">
<feFlood flood-opacity="0" result="BackgroundImageFix"/>
<feColorMatrix in="SourceAlpha" type="matrix" values="0 0 0 0 0 0 0 0 0 0 0 0 0 0 0 0 0 0 127 0" result="hardAlpha"/>
<feOffset dy="3.36706"/>
<feGaussianBlur stdDeviation="1.68353"/>
<feComposite in2="hardAlpha" operator="out"/>
<feColorMatrix type="matrix" values="0 0 0 0 0 0 0 0 0 0 0 0 0 0 0 0 0 0 0.25 0"/>
<feBlend mode="normal" in2="BackgroundImageFix" result="effect1_dropShadow_117_2021"/>
<feBlend mode="normal" in="SourceGraphic" in2="effect1_dropShadow_117_2021" result="shape"/>
</filter>
</defs>
</svg>
