<svg width="150" height="150" viewBox="0 0 150 150" fill="none" xmlns="http://www.w3.org/2000/svg">
<rect width="150" height="150" rx="23.0939" fill="#21C959"/>
<path d="M119.764 72.9995C120.868 73 121.764 73.8962 121.764 75.0005C121.764 76.1045 120.868 77 119.764 77.0005H118.169V124.553H126.56C127.112 124.553 127.56 125.001 127.56 125.553V130.745C127.56 131.297 127.112 131.745 126.56 131.745H23.4399C22.8877 131.745 22.44 131.297 22.4399 130.745V125.553C22.44 125.001 22.8877 124.553 23.4399 124.553H34.1694V77.0005H30.2397C29.1353 77.0005 28.239 76.1048 28.2388 75.0005C28.2388 73.8959 29.1352 72.9995 30.2397 72.9995H119.764ZM38.1694 124.553H54.1694V77.0005H38.1694V124.553ZM58.1694 124.553H74.1694V77.0005H58.1694V124.553ZM78.1694 124.553H94.1694V77.0005H78.1694V124.553ZM98.1694 124.553H114.169V77.0005H98.1694V124.553Z" fill="white"/>
<path d="M90.1599 18.2721C90.2002 18.2441 90.2562 18.2529 90.2897 18.2888C101.394 30.1868 91.9639 37.7293 91.2966 39.3395C90.5368 41.1738 89.9903 45.8746 89.8591 48.2048C89.8535 48.3033 89.9748 48.3436 90.028 48.2604C92.0129 45.1579 93.4181 36.6718 107.564 37.8991C107.618 37.9037 107.661 37.9501 107.658 38.0036C107.432 41.9756 105.529 45.7407 102.785 48.4343C99.0813 52.0694 94.6987 51.3152 89.9655 51.3464C89.9117 51.3467 89.8674 51.3902 89.8659 51.444L89.4577 67.2604C89.4554 67.3664 89.5971 67.4015 89.6442 67.3063C91.7873 62.9833 92.0783 60.023 96.7829 56.9382C100.864 54.2626 107.302 53.4758 112.071 53.9772C112.122 53.9826 112.16 54.0249 112.16 54.0759C112.101 58.8984 109.062 64.1763 105.823 67.2389C101.002 71.7978 96.2373 70.8673 90.2312 71.0593C90.1772 71.0611 90.1343 71.1059 90.1345 71.1598L90.1452 73.9606L91.446 92.6755C95.2275 92.6831 99.0098 92.6786 102.788 92.6696C105.219 92.6639 109.587 91.862 111.27 93.8962C112.153 94.9633 112.35 96.4729 111.989 97.8005C111.487 99.645 110.497 99.3888 109.414 100.148C108.011 101.132 105.003 118.805 103.593 123.736C102.41 127.876 101.792 127.391 97.5456 127.396C94.5549 127.4 79.917 128.085 78.3493 126.82C76.9916 125.724 73.3489 107.311 72.5739 103.48C71.3371 97.366 69.1538 101.067 68.4489 97.4059C67.1522 90.6723 78.6597 92.5871 83.0105 92.6305C84.2681 92.6431 85.5264 92.6504 86.7849 92.6579C86.4786 88.652 86.0449 84.4248 85.4821 79.3005L85.2565 73.7995L85.405 66.946C85.4059 66.8942 85.3657 66.8497 85.3142 66.8444C78.9375 66.1869 75.0948 68.0425 69.6149 63.0124C66.6506 60.2914 62.7725 53.8954 63.2712 49.4489C63.2767 49.4011 63.3159 49.3647 63.364 49.362C70.2152 48.9799 78.5103 50.3718 82.4821 56.6003C83.4997 58.1958 84.8053 61.1585 85.5105 62.2761C85.5599 62.3544 85.6737 62.3216 85.6804 62.2292L86.7321 47.696C86.736 47.6409 86.6945 47.5932 86.6394 47.5895C82.4254 47.3081 77.5678 47.6719 74.4655 44.4401C71.9595 41.8291 69.591 37.836 69.3376 33.9645C69.3347 33.9178 69.3646 33.876 69.4099 33.8639C72.7476 32.9758 78.0974 34.3247 81.1745 36.068C85.4666 38.4997 84.8 40.8312 87.069 43.985C87.1167 44.0512 87.2205 44.0346 87.2448 43.9567C88.174 40.9743 88.6297 39.0554 87.2575 37.7057C85.3178 35.7986 84.4374 34.0039 84.3366 31.071C84.1919 26.8649 86.8427 20.576 90.1599 18.2721Z" fill="white"/>
</svg>
