<svg width="120" height="120" viewBox="0 0 120 120" fill="none" xmlns="http://www.w3.org/2000/svg">
<rect width="120" height="120" rx="23.0939" fill="#FF6668"/>
<path d="M58.2017 52.6034C65.3445 51.5653 72.0493 56.3029 73.4576 63.3821L78.6462 89.4663C79.1576 92.0381 77.1903 94.4354 74.5682 94.4354H45.8879C42.9505 94.4352 40.7604 91.7258 41.3769 88.8537L46.8887 63.1808C48.0789 57.6378 52.5913 53.4189 58.2017 52.6034ZM59.9995 25.5654C66.1527 25.5654 71.1412 30.554 71.1412 36.7071C71.141 42.8601 66.1526 47.8476 59.9995 47.8476C53.8469 47.8472 48.8592 42.8598 48.859 36.7071C48.859 30.5543 53.8468 25.5659 59.9995 25.5654Z" fill="white"/>
</svg>
