<svg width="150" height="150" viewBox="0 0 150 150" fill="none" xmlns="http://www.w3.org/2000/svg">
<rect width="150" height="150" rx="28.8674" fill="#7B7B7B"/>
<path d="M118.924 24.7949C121.685 24.7952 123.924 27.0337 123.924 29.7949V120.205C123.924 122.966 121.685 125.205 118.924 125.205H112.69C109.929 125.205 107.69 122.967 107.69 120.205V116.939C107.454 117.781 106.683 118.398 105.767 118.398H43.2852C42.9314 118.398 42.5998 118.306 42.3115 118.145V120.205C42.3115 122.966 40.0727 125.205 37.3115 125.205H31.0771C28.3158 125.205 26.0762 122.966 26.0762 120.205V29.7949C26.0762 27.0336 28.3158 24.7951 31.0771 24.7949H118.924ZM76.3926 41.4541C76.7938 41.8198 77.0468 42.345 77.0469 42.9307V114.398H105.767C106.683 114.399 107.454 115.016 107.69 115.857V46.4541C107.69 43.6928 105.452 41.4544 102.69 41.4541H76.3926ZM47.3105 41.4541C44.5493 41.4544 42.3115 43.6928 42.3115 46.4541V114.652C42.5997 114.491 42.9316 114.398 43.2852 114.398H73.0469V42.9307C73.0469 42.3449 73.3008 41.8199 73.7021 41.4541H47.3105ZM59.1191 56.3174C59.1338 56.3184 59.1485 56.318 59.1631 56.3193C59.217 56.3241 59.2706 56.3326 59.3242 56.3418C59.333 56.3433 59.3419 56.3441 59.3506 56.3457C59.4067 56.3561 59.4623 56.3695 59.5176 56.3848C59.524 56.3866 59.5307 56.3878 59.5371 56.3896C59.6384 56.4188 59.737 56.4582 59.834 56.5039C59.8577 56.515 59.882 56.525 59.9053 56.5371C59.9299 56.5499 59.9533 56.5652 59.9775 56.5791C60.0105 56.598 60.0442 56.6158 60.0762 56.6367C60.0999 56.6522 60.1223 56.6699 60.1455 56.6865C60.1774 56.7093 60.2095 56.732 60.2402 56.7568C60.2443 56.7601 60.2489 56.7633 60.2529 56.7666C60.2766 56.786 60.2978 56.8079 60.3203 56.8281C60.3421 56.8478 60.3646 56.8669 60.3857 56.8877C60.4137 56.9151 60.4398 56.9439 60.4658 56.9727C60.4824 56.991 60.5006 57.0082 60.5166 57.0273L68.3711 66.4033C69.0803 67.2499 68.9685 68.5113 68.1221 69.2207C67.2754 69.9298 66.0139 69.8183 65.3047 68.9717L60.9834 63.8125V102.233C60.9834 103.338 60.0879 104.233 58.9834 104.233C57.8788 104.233 56.9834 103.338 56.9834 102.233V63.8984L52.625 69.2061C51.924 70.0594 50.6631 70.1831 49.8096 69.4824C48.956 68.7814 48.8323 67.5206 49.5332 66.667L57.4111 57.0742C57.4167 57.0672 57.423 57.0607 57.4287 57.0537L57.4375 57.043C57.4476 57.0307 57.4584 57.0188 57.4688 57.0068C57.4947 56.9768 57.5208 56.9467 57.5488 56.918L57.5752 56.8916C57.5979 56.8691 57.622 56.8484 57.6455 56.8271C57.6633 56.8111 57.6807 56.7938 57.6992 56.7783C57.7022 56.7758 57.705 56.773 57.708 56.7705C57.7462 56.7389 57.7862 56.7101 57.8262 56.6816C57.8404 56.6715 57.8537 56.6601 57.8682 56.6504C57.9096 56.6226 57.9531 56.5986 57.9961 56.5742C58.0122 56.565 58.0276 56.5546 58.0439 56.5459C58.074 56.5299 58.1051 56.5163 58.1357 56.502C58.1642 56.4886 58.1918 56.4738 58.2207 56.4619C58.2457 56.4516 58.2716 56.4438 58.2969 56.4346C58.3339 56.421 58.3706 56.4068 58.4082 56.3955C58.4169 56.3929 58.4258 56.3912 58.4346 56.3887C58.5495 56.356 58.6664 56.333 58.7842 56.3213C58.8953 56.3102 59.0074 56.3099 59.1191 56.3174ZM91.1602 55.3525C92.2647 55.3525 93.1602 56.248 93.1602 57.3525V96.3652L97.4814 91.207C98.1907 90.3604 99.4521 90.249 100.299 90.958C101.146 91.6673 101.257 92.9287 100.548 93.7754L92.6934 103.151C92.6785 103.169 92.6608 103.184 92.6455 103.201C92.6202 103.229 92.5956 103.258 92.5684 103.285C92.5401 103.313 92.5101 103.339 92.4805 103.365C92.4632 103.38 92.4476 103.397 92.4297 103.412C92.4257 103.415 92.421 103.418 92.417 103.421C92.3877 103.445 92.3574 103.466 92.3271 103.488C92.3024 103.506 92.2782 103.524 92.2529 103.541C92.2262 103.558 92.1983 103.574 92.1709 103.59C92.1403 103.608 92.1103 103.626 92.0791 103.643C92.0625 103.651 92.0451 103.658 92.0283 103.666C91.9268 103.715 91.8232 103.756 91.7168 103.787C91.7036 103.791 91.69 103.793 91.6768 103.797C91.5659 103.826 91.454 103.848 91.3408 103.858C91.3119 103.861 91.2829 103.861 91.2539 103.862C91.2197 103.864 91.1856 103.866 91.1514 103.866C91.1087 103.866 91.0661 103.863 91.0234 103.86C91.0026 103.859 90.9817 103.859 90.9609 103.856C90.8414 103.845 90.7231 103.821 90.6064 103.787C90.6 103.785 90.5933 103.784 90.5869 103.782C90.5497 103.771 90.5133 103.758 90.4766 103.744C90.4503 103.735 90.4234 103.726 90.3975 103.716C90.3594 103.7 90.3225 103.681 90.2852 103.663C90.2654 103.653 90.2451 103.645 90.2256 103.635C90.2003 103.621 90.1763 103.605 90.1514 103.591C90.0585 103.537 89.9682 103.476 89.8838 103.406C89.8813 103.404 89.8785 103.402 89.876 103.4C89.8647 103.391 89.8548 103.38 89.8438 103.37C89.8052 103.336 89.7668 103.302 89.7305 103.265C89.7188 103.253 89.7086 103.24 89.6973 103.228C89.6695 103.198 89.6405 103.168 89.6143 103.136L81.71 93.5117C81.0093 92.6581 81.1329 91.3972 81.9863 90.6963C82.8398 89.9955 84.1007 90.1195 84.8018 90.9727L89.1602 96.2793V57.3525C89.1602 56.2481 90.0557 55.3527 91.1602 55.3525ZM93.3232 30.5596C91.955 29.3216 89.87 29.383 88.5674 30.6602C87.8607 31.3534 87.0509 32.1343 86.3701 32.7637C86.0286 33.0794 85.7319 33.3449 85.5039 33.5381C85.3538 33.6653 85.2737 33.7254 85.25 33.7441L85.333 33.7031C84.3451 34.1971 83.9446 35.3988 84.4385 36.3867C84.9017 37.3128 85.9868 37.7227 86.9346 37.3633L87.1221 37.2812L87.2598 37.2061C87.5807 37.0192 87.9002 36.7505 88.0898 36.5898C88.3811 36.343 88.7256 36.0334 89.085 35.7012C89.6909 35.141 90.38 34.4781 91.0107 33.8633L94.4521 36.9756C95.2712 37.7159 96.5355 37.6527 97.2764 36.834C98.0167 36.015 97.9542 34.7497 97.1357 34.0088L93.3232 30.5596ZM55.0088 29.2422C54.061 28.8828 52.9759 29.2927 52.5127 30.2188C52.0191 31.2066 52.4194 32.4084 53.4072 32.9023L53.3242 32.8613C53.3474 32.8797 53.4271 32.9394 53.5781 33.0674C53.8061 33.2606 54.1026 33.5259 54.4443 33.8418C55.1252 34.4712 55.9348 35.252 56.6416 35.9453C57.9441 37.2226 60.0291 37.2836 61.3975 36.0459L65.21 32.5967C66.0286 31.8557 66.0912 30.5905 65.3506 29.7715C64.6097 28.9527 63.3454 28.8895 62.5264 29.6299L59.085 32.7422C58.4541 32.1273 57.7652 31.4645 57.1592 30.9043C56.7997 30.572 56.4554 30.2625 56.1641 30.0156C55.9744 29.8549 55.6551 29.5863 55.334 29.3994L55.1963 29.3242L55.0088 29.2422Z" fill="white"/>
</svg>
