<svg width="120" height="120" viewBox="0 0 120 120" fill="none" xmlns="http://www.w3.org/2000/svg">
<rect width="120" height="120" rx="21.6506" fill="#73AEF2"/>
<path fill-rule="evenodd" clip-rule="evenodd" d="M59.4923 26.1675C61.1427 26.1675 62.4805 27.5053 62.4805 29.1558V36.4165H84.6612C84.6699 36.4166 84.6789 36.4182 84.6876 36.4185C85.396 36.4274 86.0522 36.8811 86.2833 37.5923L95.4044 65.6637C95.4411 65.7768 95.4651 65.8917 95.4776 66.0055H98.0108C98.8254 66.0055 99.4133 66.79 99.1017 67.5426C98.344 69.3716 97.2329 71.0333 95.8331 72.4332C94.433 73.8333 92.7708 74.945 90.9415 75.7027C89.1123 76.4604 87.1509 76.8502 85.171 76.8502C83.1912 76.8502 81.2305 76.4603 79.4015 75.7027C77.5721 74.945 75.909 73.8333 74.5089 72.4332C73.109 71.0333 71.998 69.3716 71.2403 67.5426C70.9286 66.7901 71.5157 66.0056 72.3302 66.0055H73.8292C73.8417 65.8917 73.8657 65.7768 73.9024 65.6637L81.7813 41.4165H62.4805V87.8561H74.7257C76.3761 87.8561 77.714 89.1939 77.714 90.8444C77.7139 92.4948 76.3761 93.8327 74.7257 93.8327H44.2579C42.6075 93.8326 41.2696 92.4948 41.2696 90.8444C41.2696 89.194 42.6075 87.8561 44.2579 87.8561H56.504V41.4165H37.1866L45.0655 65.6637C45.1022 65.7768 45.1252 65.8917 45.1377 66.0055H47.6719C48.4865 66.0055 49.0744 66.79 48.7628 67.5426C48.0051 69.3716 46.894 71.0333 45.4942 72.4332C44.0941 73.8333 42.4309 74.945 40.6016 75.7027C38.7725 76.4603 36.8118 76.8502 34.8321 76.8502C32.8521 76.8502 30.8908 76.4604 29.0616 75.7027C27.2323 74.945 25.57 73.8332 24.17 72.4332C22.7701 71.0333 21.6591 69.3716 20.9014 67.5426C20.5897 66.79 21.1766 66.0055 21.9912 66.0055H23.4903C23.5028 65.8917 23.5268 65.7768 23.5635 65.6637L32.6846 37.5923C32.9156 36.8814 33.5712 36.4277 34.2793 36.4185C34.2881 36.4182 34.2969 36.4167 34.3057 36.4165H34.3223C34.3268 36.4166 34.3315 36.4171 34.336 36.4175C34.3407 36.4174 34.3459 36.4165 34.3506 36.4165H56.504V29.1558C56.504 27.5054 57.8418 26.1675 59.4923 26.1675ZM27.0264 66.0055H41.6016L34.3145 43.5767L27.0264 66.0055ZM77.3663 66.0055H91.9405L84.6534 43.5767L77.3663 66.0055Z" fill="white"/>
</svg>
