<svg width="120" height="120" viewBox="0 0 120 120" fill="none" xmlns="http://www.w3.org/2000/svg">
<rect width="120" height="120" rx="18.4752" fill="#FFCD7C"/>
<path d="M62.8213 38.2998C68.5251 38.2998 73.0101 39.5397 76.2754 42.0195C79.5821 44.4582 81.2354 48.0755 81.2354 52.8701C81.2353 57.6233 79.582 61.2398 76.2754 63.7197C73.0101 66.1583 68.5252 67.3779 62.8213 67.3779H53.0254V70.9121H66.666V75.252H53.0254V81.7002H44.9658V75.252H38.7656V70.9121H44.9658V38.2998H62.8213ZM53.0254 60.8682H62.7598C66.0663 60.8681 68.6084 60.1862 70.3857 58.8223C72.2044 57.4169 73.1133 55.453 73.1133 52.9316C73.1132 50.4105 72.2043 48.4886 70.3857 47.166C68.6084 45.802 66.0664 45.1201 62.7598 45.1201H53.0254V60.8682Z" fill="white"/>
</svg>
