<svg width="150" height="150" viewBox="0 0 150 150" fill="none" xmlns="http://www.w3.org/2000/svg">
<rect width="150" height="150" rx="24.7435" fill="#FF3D41"/>
<path d="M38.6592 53.9511C36.4318 51.7237 36.4318 48.1124 38.6592 45.885C40.8865 43.6577 44.4979 43.6576 46.7253 45.885C48.9526 48.1124 48.9526 51.7237 46.7253 53.9511C44.4979 56.1785 40.8865 56.1785 38.6592 53.9511Z" fill="white"/>
<path d="M25.4721 104.19C24.8973 105.474 25.3891 106.987 26.6083 107.691C28.0153 108.503 29.8123 107.925 30.4826 106.446L40.7993 84.0463L36.179 79.6241L25.4721 104.19Z" fill="white"/>
<path d="M56.1575 79.9197C57.2106 78.8697 57.2075 77.1618 56.1544 76.1118L47.6825 67.6638V75.4581C49.4391 77.2148 50.4747 78.2524 52.1887 79.9758C53.2689 81.059 55.0193 81.059 56.1087 79.9696L56.1585 79.9197H56.1575Z" fill="white"/>
<path d="M37.0037 57.6637L27.6924 63.194C26.52 63.8902 25.6629 65.0149 25.3029 66.3306L23.4197 73.2087C23.2194 73.9413 23.3336 74.6852 23.6832 75.2974C24.0329 75.9106 24.6139 76.3879 25.3496 76.5892C26.8146 76.9907 28.3285 76.1275 28.73 74.6593L30.0249 69.9393C30.3777 68.6517 31.2067 67.5466 32.3439 66.8473L36.1788 64.4879V77.7212L41.6749 82.9828V82.9797L46.3378 87.4485L47.9533 88.9945C49.2088 90.1929 50.1167 91.7088 50.5857 93.3835C51.534 96.7722 53.1952 102.717 54.1456 106.131C54.5482 107.578 56.035 108.437 57.5043 108.06L57.5738 108.044C59.0337 107.667 59.899 106.164 59.4923 104.711L55.5422 90.6453C55.0701 88.9738 54.1622 87.4547 52.9067 86.2563L46.3119 79.9416V62.5071C46.3119 61.0742 45.4714 59.7741 44.1641 59.1868L40.3572 57.4748C39.275 56.9882 38.0247 57.0588 37.0047 57.6647L37.0037 57.6637Z" fill="white"/>
<path d="M110.033 113.921C108.862 115.093 108.862 116.992 110.033 118.163C111.205 119.335 113.104 119.335 114.276 118.163L129.014 103.425C130.185 102.254 130.185 100.355 129.014 99.183C127.842 98.0114 125.942 98.0114 124.771 99.183L110.033 113.921Z" fill="white"/>
<path d="M114.276 113.921C115.447 115.093 115.447 116.992 114.276 118.163C113.104 119.335 111.205 119.335 110.033 118.163L95.2952 103.425C94.1239 102.254 94.1239 100.354 95.2952 99.1829C96.4668 98.0113 98.3668 98.0113 99.5384 99.1829L114.276 113.921Z" fill="white"/>
<path d="M83.626 67.2121C81.9691 67.2121 80.626 68.5553 80.626 70.2121C80.626 71.8689 81.9691 73.2121 83.626 73.2121H109.155V110.075C109.155 111.732 110.498 113.075 112.155 113.075C113.812 113.075 115.155 111.732 115.155 110.075V72.2121C115.155 69.4507 112.917 67.2122 110.155 67.2121H83.626Z" fill="white"/>
<path d="M72.6631 118.325C72.6631 120.179 71.1598 121.682 69.3057 121.682H23.3213C22.2167 121.682 21.3213 120.787 21.3213 119.682C21.3215 118.578 22.2169 117.682 23.3213 117.682H68.6631V102.286C68.6631 101.181 69.5585 100.286 70.6631 100.286C71.7675 100.286 72.6631 101.181 72.6631 102.286V118.325Z" fill="white"/>
<path d="M72.6626 31.676C72.6626 29.8217 71.1595 28.3186 69.3052 28.3186L22.1079 28.3176C21.0034 28.3176 20.108 29.2132 20.1079 30.3176C20.1079 31.4222 21.0033 32.3176 22.1079 32.3176L68.6626 32.3186V47.7151C68.6626 48.8196 69.5581 49.715 70.6626 49.7151C71.7672 49.7151 72.6626 48.8197 72.6626 47.7151V31.676Z" fill="white"/>
</svg>
