<svg width="120" height="120" viewBox="0 0 120 120" fill="none" xmlns="http://www.w3.org/2000/svg">
<rect width="120" height="120" rx="23.0939" fill="#FF6668"/>
<path d="M74.568 52.461C77.1902 52.461 79.1575 54.8583 78.646 57.4301L73.4574 83.5141C72.0492 90.5933 65.3444 95.3309 58.2016 94.2928C52.5913 93.4773 48.0788 89.2584 46.8887 83.7155L41.3769 58.0426C40.7604 55.1706 42.9505 52.4612 45.8879 52.461H74.568ZM59.9994 25.5654C66.1526 25.5654 71.1411 30.5539 71.1411 36.7071C71.1409 42.8601 66.1524 47.8475 59.9994 47.8475C53.8468 47.8471 48.8592 42.8598 48.859 36.7071C48.859 30.5542 53.8467 25.5659 59.9994 25.5654Z" fill="white"/>
</svg>
