<svg width="150" height="150" viewBox="0 0 150 150" fill="none" xmlns="http://www.w3.org/2000/svg">
<rect width="150" height="150" rx="28.8674" fill="#FF0084"/>
<path fill-rule="evenodd" clip-rule="evenodd" d="M52.1224 78.1276C50.2343 64.7071 60.0616 52.1689 73.4023 50.5664C86.9598 48.938 99.1109 58.3293 100.787 71.9612C102.474 85.6746 92.8938 97.4684 79.4723 99.4537C66.119 101.429 53.9729 91.2799 52.1224 78.1276ZM42.1536 77.1719C43.1826 96.3009 59.8004 110.375 78.6622 109.351C97.4886 108.33 111.925 91.7234 110.79 72.8732C109.641 53.7888 93.2115 39.2101 74.1735 40.5431C55.0028 41.885 41.1216 57.986 42.1536 77.1719Z" fill="white"/>
<path fill-rule="evenodd" clip-rule="evenodd" d="M75.4108 54.8154C64.2329 55.4622 55.7532 64.8861 56.395 76.1258C57.0301 87.2438 66.5795 95.8343 77.6581 95.1645C88.8811 94.486 97.0263 84.8352 96.4605 73.6965C95.8978 62.6226 86.4368 54.1775 75.4108 54.8154Z" fill="white"/>
<path fill-rule="evenodd" clip-rule="evenodd" d="M115.668 65.9396C116.014 68.6081 116.777 71.2856 118.185 73.5935C120.924 78.0852 120.263 75.8092 119.806 81.4065C119.288 87.7427 118.923 94.019 118.613 100.368C118.487 102.938 117.711 106.944 119.854 108.747C122.127 110.66 125.466 108.89 125.672 105.87C126.081 99.882 125.56 92.1831 125.486 86.0137C125.416 80.2615 126.276 44.4684 124.724 41.7268C123.91 40.2898 122.343 40.5652 121.259 41.5273C119.496 43.0912 118.427 45.7615 117.639 47.9522C115.654 53.4671 114.917 60.1335 115.669 65.9396H115.668Z" fill="white"/>
<path fill-rule="evenodd" clip-rule="evenodd" d="M25.9055 40.9667C24.8076 41.6466 24.8236 48.0795 24.6884 49.6884C24.1851 55.6833 22.9714 62.847 27.8261 65.6688C30.4969 67.2212 29.4979 67.2743 29.3348 74.0412L28.4224 103.22C28.3459 106.059 28.1912 109.835 32.273 109.438C36.1275 109.063 35.4902 105.349 35.4424 102.505C35.3879 99.25 35.2776 95.9432 35.1314 92.6898C34.8424 86.256 34.6919 79.7981 34.451 73.3579C34.181 66.1284 33.6748 66.9793 36.1592 65.5305C38.8041 63.9878 39.5208 61.744 39.588 58.7733C39.6687 55.2114 39.0568 48.4288 38.7361 44.4352C38.6778 43.7078 38.6854 42.862 38.6059 42.172C38.4876 41.1449 38.4048 40.9807 37.5736 40.9327C36.1338 42.6974 38.6051 57.6397 35.9381 57.1759C34.724 56.9645 35.0211 54.54 35.008 53.6046C34.9755 51.2709 34.918 42.0425 34.3107 40.9607C32.5879 40.7307 33.0958 42.9388 33.0658 44.4306C33.0337 46.0208 33.0295 47.6194 33.0189 49.2109C33.0075 50.8851 32.9851 52.5589 32.9686 54.2332C32.9555 55.5475 33.2488 57.3503 31.5305 57.1678C30.3777 56.1624 30.7923 50.364 30.7919 48.5811C30.7914 47.1115 30.7471 45.66 30.6976 44.1925C30.6503 42.7903 31.1105 40.746 29.5123 40.9535C28.8999 41.9088 28.9659 47.9335 28.9189 49.4503C28.8585 51.4016 29.2055 57.0821 27.9326 57.203C26.1573 56.6726 26.8563 50.9318 26.8161 49.2113C26.779 47.6156 26.7295 46.0186 26.6991 44.4229C26.6788 43.3679 27.1356 41.3593 25.905 40.968L25.9055 40.9667Z" fill="white"/>
</svg>
