<svg width="150" height="150" viewBox="0 0 150 150" fill="none" xmlns="http://www.w3.org/2000/svg">
<rect width="150" height="150" rx="28.8674" fill="#A9A9A9"/>
<path d="M75.5196 24.7036L119.108 55.2866L127.552 61.2104C128.456 61.8448 128.674 63.0924 128.04 63.9966C127.406 64.9008 126.158 65.1193 125.254 64.4849L119.96 60.77V122.112H126.403C127.508 122.112 128.403 123.008 128.403 124.112C128.403 125.216 127.508 126.112 126.403 126.112H23.5968C22.4922 126.112 21.5968 125.216 21.5968 124.112C21.597 123.007 22.4924 122.112 23.5968 122.112H29.836V60.8247L24.7647 64.4722C23.8679 65.117 22.6176 64.912 21.9727 64.0151C21.3284 63.1185 21.5324 61.8689 22.4288 61.2241L30.668 55.3003L73.2032 24.7173L74.3565 23.8882L75.5196 24.7036ZM33.836 57.9478V122.112H37.961C37.9656 122.001 37.9819 121.888 38.0108 121.775L42.4493 104.383H71.6768L76.0011 121.785C76.0283 121.895 76.0425 122.004 76.047 122.112H85.336L79.1085 98.3862C78.8483 97.3943 79.7929 96.4617 81.0567 96.4614H84.2198V89.6704C84.2198 84.1477 88.6971 79.6706 94.2198 79.6704H96.1788C101.702 79.6706 106.179 84.1477 106.179 89.6704V96.4614H109.343C110.602 96.4618 111.545 97.3887 111.292 98.3784L105.227 122.112H115.96V57.9634L74.3839 28.7944L33.836 57.9478ZM56.7472 55.813C57.8515 55.8132 58.7472 56.7085 58.7472 57.813V90.5435H66.3204C67.4356 90.5438 68.398 91.1902 68.6222 92.0913L70.6827 100.383H43.4698L45.589 92.0815C45.8178 91.1852 46.7773 90.5439 47.8878 90.5435H54.7472V57.813C54.7472 56.7085 55.6427 55.8132 56.7472 55.813ZM94.2198 83.6704C90.9063 83.6706 88.2198 86.3568 88.2198 89.6704V96.4614H102.179V89.6704C102.179 86.3568 99.4924 83.6706 96.1788 83.6704H94.2198Z" fill="white"/>
</svg>
