<svg width="150" height="150" viewBox="0 0 150 150" fill="none" xmlns="http://www.w3.org/2000/svg">
<rect width="150" height="150" rx="28.8674" fill="#0D51DA"/>
<path d="M102.074 44.7724C102.817 43.9544 104.081 43.8924 104.899 44.6347C122.872 60.9434 124.221 88.7342 107.912 106.707C107.17 107.525 105.905 107.587 105.087 106.845C104.269 106.102 104.208 104.837 104.95 104.019C119.774 87.6826 118.548 62.4208 102.211 47.5966C101.393 46.8543 101.332 45.5903 102.074 44.7724ZM92.9561 54.8202C93.6984 54.0025 94.9634 53.9413 95.7813 54.6835C108.835 66.5283 109.814 86.713 97.9698 99.7665C97.2275 100.584 95.9625 100.645 95.1446 99.9032C94.3269 99.1612 94.2653 97.897 95.0069 97.079C105.367 85.6615 104.51 68.0058 93.0928 57.6454C92.2751 56.9031 92.2139 55.6381 92.9561 54.8202ZM83.2725 63.3056C84.0148 62.4876 85.2797 62.4266 86.0977 63.1688C87.755 64.6727 89.1239 66.3806 90.1963 68.2216C93.5022 73.8968 93.9872 80.8103 91.5547 86.8729C90.6373 89.1594 89.3058 91.3234 87.5577 93.2499C86.8154 94.0674 85.5503 94.1285 84.7325 93.3866C83.9151 92.6445 83.8541 91.3803 84.5957 90.5624C86.0199 88.9929 87.0996 87.2359 87.8428 85.3837C89.818 80.4609 89.421 74.8405 86.7383 70.2353C85.8696 68.744 84.7607 67.3562 83.4102 66.1308C82.5922 65.3885 82.5303 64.1236 83.2725 63.3056Z" fill="white"/>
<path d="M102.074 44.7724C102.817 43.9544 104.081 43.8924 104.899 44.6347C122.872 60.9434 124.221 88.7342 107.912 106.707C107.17 107.525 105.905 107.587 105.087 106.845C104.269 106.102 104.208 104.837 104.95 104.019C119.774 87.6826 118.548 62.4208 102.211 47.5966C101.393 46.8543 101.332 45.5903 102.074 44.7724ZM92.9561 54.8202C93.6984 54.0025 94.9634 53.9413 95.7813 54.6835C108.835 66.5283 109.814 86.713 97.9698 99.7665C97.2275 100.584 95.9625 100.645 95.1446 99.9032C94.3269 99.1612 94.2653 97.897 95.0069 97.079C105.367 85.6615 104.51 68.0058 93.0928 57.6454C92.2751 56.9031 92.2139 55.6381 92.9561 54.8202ZM83.2725 63.3056C84.0148 62.4876 85.2797 62.4266 86.0977 63.1688C87.755 64.6727 89.1239 66.3806 90.1963 68.2216C93.5022 73.8968 93.9872 80.8103 91.5547 86.8729C90.6373 89.1594 89.3058 91.3234 87.5577 93.2499C86.8154 94.0674 85.5503 94.1285 84.7325 93.3866C83.9151 92.6445 83.8541 91.3803 84.5957 90.5624C86.0199 88.9929 87.0996 87.2359 87.8428 85.3837C89.818 80.4609 89.421 74.8405 86.7383 70.2353C85.8696 68.744 84.7607 67.3562 83.4102 66.1308C82.5922 65.3885 82.5303 64.1236 83.2725 63.3056Z" fill="white"/>
<path d="M30.6963 102.489H34.6963V46.4608H30.6963V102.489ZM67.4463 102.489H71.4463V46.4608H67.4463V102.489Z" fill="white"/>
<path d="M70.457 97.7788C71.0093 97.7788 71.457 98.2266 71.457 98.7788V110.8C71.457 113.562 69.2185 115.8 66.457 115.8H35.6865C32.9252 115.8 30.6865 113.562 30.6865 110.8V98.7788C30.6866 98.2267 31.1344 97.7789 31.6865 97.7788H70.457ZM51.0723 102.935C48.9433 102.935 47.2169 104.661 47.2168 106.79C47.2168 108.919 48.9432 110.645 51.0723 110.645C53.2012 110.645 54.9268 108.919 54.9268 106.79C54.9267 104.661 53.2012 102.935 51.0723 102.935Z" fill="white"/>
<path d="M66.457 34.1997C69.2184 34.1997 71.457 36.4383 71.457 39.1997V48.7964C71.457 49.3487 71.0093 49.7964 70.457 49.7964H31.6865C31.1343 49.7963 30.6865 49.3486 30.6865 48.7964V39.1997C30.6865 36.4383 32.9251 34.1998 35.6865 34.1997H66.457ZM46.7246 40.4897C45.6203 40.49 44.7257 41.3855 44.7256 42.4897C44.7256 43.5942 45.6203 44.4895 46.7246 44.4897H55.418C56.5225 44.4897 57.418 43.5943 57.418 42.4897C57.4178 41.3853 56.5225 40.4897 55.418 40.4897H46.7246Z" fill="white"/>
</svg>
