<svg width="120" height="120" viewBox="0 0 120 120" fill="none" xmlns="http://www.w3.org/2000/svg">
<rect width="120" height="120" rx="23.0939" fill="#FF8661"/>
<path d="M36.188 37.2773C37.3928 37.2774 38.3695 38.2541 38.3696 39.459V80.541C38.3696 81.7459 37.3929 82.7226 36.188 82.7227H30.9517C29.7467 82.7227 28.7701 81.746 28.77 80.541V39.459C28.7701 38.2541 29.7467 37.2773 30.9517 37.2773H36.188ZM89.0493 37.2773C90.2541 37.2775 91.2309 38.2542 91.231 39.459V80.541C91.2309 81.7459 90.2541 82.7225 89.0493 82.7227H83.813C82.608 82.7227 81.6314 81.746 81.6313 80.541V39.459C81.6314 38.2541 82.6081 37.2773 83.813 37.2773H89.0493ZM23.3872 44.1025C24.5921 44.1025 25.5697 45.0793 25.5698 46.2842V73.7158C25.5697 74.9207 24.5921 75.8975 23.3872 75.8975H21.3511C20.1462 75.8974 19.1696 74.9207 19.1694 73.7158V46.2842C19.1696 45.0793 20.1462 44.1026 21.3511 44.1025H23.3872ZM98.6489 44.1025C99.8538 44.1025 100.831 45.0793 100.832 46.2842V73.7158C100.831 74.9207 99.8538 75.8975 98.6489 75.8975H96.6128C95.408 75.8974 94.4313 74.9206 94.4312 73.7158V46.2842C94.4313 45.0794 95.408 44.1026 96.6128 44.1025H98.6489ZM13.5698 53.8057C14.4533 53.8059 15.1694 54.5227 15.1694 55.4062V64.5938C15.1694 65.4773 14.4533 66.1941 13.5698 66.1943C12.6862 66.1943 11.9692 65.4774 11.9692 64.5938V55.4062C11.9692 54.5226 12.6862 53.8057 13.5698 53.8057ZM106.431 53.8057C107.315 53.8057 108.031 54.5226 108.031 55.4062V64.5938C108.031 65.4774 107.315 66.1943 106.431 66.1943C105.547 66.1943 104.832 65.4774 104.832 64.5938V55.4062C104.832 54.5226 105.547 53.8057 106.431 53.8057ZM76.2485 54.8545C77.4535 54.8545 78.4312 55.8321 78.4312 57.0371V62.9629C78.4312 64.1679 77.4535 65.1455 76.2485 65.1455H43.7515C42.5465 65.1455 41.5688 64.1679 41.5688 62.9629V57.0371C41.5688 55.8321 42.5465 54.8545 43.7515 54.8545H76.2485Z" fill="white"/>
</svg>
