<svg width="172" height="172" viewBox="0 0 172 172" fill="none" xmlns="http://www.w3.org/2000/svg">
<g filter="url(#filter0_d_117_5102)">
<rect x="7.79297" y="7.79309" width="150" height="150" rx="28.8674" fill="#FF0F77" shape-rendering="crispEdges"/>
<path fill-rule="evenodd" clip-rule="evenodd" d="M39.196 68.5496L40.4596 68.5678C41.3202 70.291 40.7046 111.959 40.7087 117.722C40.7107 121.079 40.6034 125.603 45.4714 125.186C49.7481 124.819 49.007 119.309 49.0414 116.225C49.1042 110.752 48.7782 95.1272 49.0941 91.383L51.0745 91.3932C51.4977 99.2784 51.0643 107.988 51.1332 115.926C51.1615 119.147 50.1774 124.157 54.28 125.119C59.227 126.277 59.4193 121.403 59.4254 118.021L59.4436 80.9099C59.4396 78.5488 58.9131 69.9832 59.8203 68.5536C62.0012 68.3248 61.1912 71.1375 61.2114 76.4206C61.2276 80.4806 60.4116 88.5947 62.3616 90.3928C63.447 91.3932 65.0346 91.4904 66.1766 90.5123C68.0821 88.8782 67.3916 83.9089 67.3896 81.5093C67.3855 77.022 68.0902 66.0892 66.3285 62.499C63.3397 56.4079 56.88 57.4143 51.1838 57.4244C45.7326 57.4345 38.1147 56.1527 34.6419 61.0795C31.8333 65.0646 32.8255 74.4483 32.8518 79.4155C32.8619 81.3089 32.5845 87.8394 33.0199 89.1677C33.8866 91.8103 38.2261 91.8751 38.8153 88.6129C39.5241 84.6905 38.1471 70.7203 39.1981 68.5536L39.196 68.5496Z" fill="white"/>
<path fill-rule="evenodd" clip-rule="evenodd" d="M104.414 68.5374L104.738 67.4662C105.735 67.1807 105.556 67.1199 106.407 67.7274L105.83 68.6488C105.992 71.1598 96.841 96.5305 96.8431 98.6952L105.127 98.7519C105.552 103.033 105.202 109.363 105.204 113.832C105.206 117.132 103.746 125.07 108.645 125.178C113.492 125.285 112.085 117.021 112.061 113.532C112.03 109.091 111.771 103.073 112.148 98.7883C115.252 98.3793 114.201 101.083 114.225 103.956C114.25 106.55 114.266 109.142 114.274 111.738C114.284 114.877 112.929 123.983 116.58 125.066C122.426 126.802 121.124 117.689 121.12 114.433C121.114 109.602 120.788 103.456 121.165 98.8106L129.257 98.7843C129.261 97.4883 123.362 78.9336 122.147 75.2279C121.525 73.3346 119.438 68.9363 120.373 67.2597C122.23 67.5067 122.953 72.1884 123.469 73.8489C124.265 76.4105 125.162 78.9943 125.948 81.564C126.707 84.0486 127.035 87.6045 130.194 87.6308C134.353 87.6673 132.711 83.2771 132.005 80.9342C130.48 75.8698 128.659 70.6312 127.013 65.579C124.802 58.7893 121.55 57.305 114.634 57.4163C99.4249 57.6613 101.083 59.2611 95.0166 78.6683C94.3544 80.7864 92.2748 84.7979 93.9494 86.6386C94.9295 87.7159 96.594 87.9953 97.8252 87.163C99.7813 85.8407 103.009 71.5992 104.416 68.5415L104.414 68.5374Z" fill="white"/>
<path fill-rule="evenodd" clip-rule="evenodd" d="M78.646 124.682C79.8651 125.309 81.7503 125.321 82.9774 124.704C83.8259 122.567 83.3136 86.9139 83.3075 81.5073L83.2569 43.7984C83.2893 41.17 83.8219 40.3783 80.8047 40.3641C77.3906 40.3479 78.2573 41.7755 78.3079 48.8872C78.3929 60.9701 77.8907 122.964 78.646 124.682Z" fill="white"/>
<path fill-rule="evenodd" clip-rule="evenodd" d="M112.264 40.3843C102.283 41.7289 104.041 56.8918 114.196 55.3265C123.789 53.8483 121.792 39.1005 112.264 40.3843Z" fill="white"/>
<path fill-rule="evenodd" clip-rule="evenodd" d="M48.0755 40.6192C44.1268 41.737 41.9379 45.951 42.922 49.9482C43.8616 53.7673 48.1342 56.1487 52.006 55.1241C61.7278 52.5483 57.5321 37.9422 48.0755 40.6192Z" fill="white"/>
</g>
<defs>
<filter id="filter0_d_117_5102" x="-0.000134468" y="-1.23978e-05" width="171.103" height="171.103" filterUnits="userSpaceOnUse" color-interpolation-filters="sRGB">
<feFlood flood-opacity="0" result="BackgroundImageFix"/>
<feColorMatrix in="SourceAlpha" type="matrix" values="0 0 0 0 0 0 0 0 0 0 0 0 0 0 0 0 0 0 127 0" result="hardAlpha"/>
<feOffset dx="2.75862" dy="2.75862"/>
<feGaussianBlur stdDeviation="5.27586"/>
<feComposite in2="hardAlpha" operator="out"/>
<feColorMatrix type="matrix" values="0 0 0 0 0 0 0 0 0 0 0 0 0 0 0 0 0 0 0.25 0"/>
<feBlend mode="normal" in2="BackgroundImageFix" result="effect1_dropShadow_117_5102"/>
<feBlend mode="normal" in="SourceGraphic" in2="effect1_dropShadow_117_5102" result="shape"/>
</filter>
</defs>
</svg>
