<svg width="120" height="120" viewBox="0 0 120 120" fill="none" xmlns="http://www.w3.org/2000/svg">
<rect width="120" height="120" rx="18.4752" fill="#56CC99"/>
<path d="M33.0322 57.1328H50.0459V43.5498H56.1562V76.4502H50.0459V62.3496H33.0322V76.4502H26.9219V43.5498H33.0322V57.1328ZM78.5078 43.5498C81.4217 43.5498 83.9125 44.02 85.9805 44.96C88.0798 45.9 89.6933 47.2473 90.8213 49.002C91.9493 50.7566 92.5137 52.8403 92.5137 55.2529C92.5136 57.6655 91.9493 59.7493 90.8213 61.5039C89.6933 63.2271 88.0797 64.5591 85.9805 65.499C85.8337 65.5635 85.6843 65.6246 85.5332 65.6846L93.0781 76.4502H86.498L79.7939 66.8291C79.3748 66.8497 78.9461 66.8613 78.5078 66.8613H71.082V76.4502H64.9717V43.5498H78.5078ZM71.082 61.833H78.2256C80.9203 61.833 82.9417 61.2531 84.2891 60.0938C85.6676 58.9345 86.3564 57.3207 86.3564 55.2529C86.3564 53.1538 85.6675 51.5401 84.2891 50.4121C82.9417 49.2841 80.9203 48.7197 78.2256 48.7197H71.082V61.833Z" fill="white"/>
</svg>
