<svg width="150" height="150" viewBox="0 0 150 150" fill="none" xmlns="http://www.w3.org/2000/svg">
<rect width="150" height="150" rx="28.8674" fill="#FFE031"/>
<path d="M74.9995 38.4258C82.0255 38.4258 87.7218 44.1215 87.7221 51.1475C87.7221 54.9856 85.5727 57.7402 83.5825 59.7305C83.5711 59.7419 83.5579 59.7516 83.5463 59.7627C83.5155 59.7923 83.4833 59.8204 83.4506 59.8486C83.4184 59.8767 83.3863 59.9045 83.353 59.9307C83.3399 59.9409 83.3282 59.9529 83.3149 59.9629C79.7801 62.614 77.5006 64.4761 77.5004 68.1846C77.5004 68.1904 77.4995 68.1963 77.4995 68.2021V73.6611L127.498 106.993C128.414 107.604 128.822 108.744 128.503 109.798C128.184 110.852 127.212 111.574 126.111 111.574H23.8891C22.7876 111.574 21.8159 110.852 21.4965 109.798C21.1775 108.744 21.586 107.604 22.5024 106.993L72.4995 73.6611V68.1846C72.4995 68.1745 72.5003 68.1644 72.5004 68.1543C72.5144 61.7625 76.8999 58.5206 80.1606 56.0781C81.7983 54.4151 82.7221 52.9138 82.7221 51.1475C82.7218 46.883 79.264 43.4258 74.9995 43.4258C70.7351 43.426 67.2781 46.8831 67.2778 51.1475C67.2778 52.5281 66.1585 53.6474 64.7778 53.6475C63.3971 53.6475 62.2778 52.5282 62.2778 51.1475C62.2781 44.1216 67.9736 38.426 74.9995 38.4258ZM32.146 106.574H117.853L74.9995 78.0039L32.146 106.574Z" fill="white"/>
</svg>
