<svg width="120" height="120" viewBox="0 0 120 120" fill="none" xmlns="http://www.w3.org/2000/svg">
<rect width="120" height="120" rx="23.0939" fill="#9A7D9F"/>
<path d="M62.3076 66.231C65.9476 66.2313 68.8994 69.1827 68.8994 72.8228C68.8992 76.0783 66.5374 78.7829 63.4346 79.3179C62.6478 79.4536 61.9727 80.0752 61.9727 80.8735V90.2319C61.9725 92.8111 59.88 94.9016 57.3008 94.9019H26.5996C24.0202 94.9019 21.9289 92.8113 21.9287 90.2319V80.8745C21.9287 80.0758 21.2528 79.4538 20.4658 79.3179C17.3627 78.7831 15.0002 76.0785 15 72.8228C15 69.1825 17.9526 66.2311 21.5928 66.231C24.0937 66.2311 26.2699 67.6246 27.3867 69.6772C28.4504 71.6321 30.1075 73.7573 32.333 73.7573H51.5674C53.7926 73.757 55.4502 71.6321 56.5137 69.6772C57.6304 67.6246 59.8066 66.231 62.3076 66.231ZM96.7051 25.0981C97.6632 25.0985 98.5189 25.7009 98.8418 26.603L104.866 43.437C105.392 44.9054 104.312 46.4545 102.753 46.4712L95.2168 46.5493C93.9638 46.5624 92.9589 47.5893 92.9717 48.8423L93.3662 87.6353C93.3774 88.7317 94.2698 89.6146 95.3662 89.6147H100.059C101.647 89.6149 102.627 90.371 103.229 91.2964C104.289 92.9243 102.613 94.6447 100.67 94.645H80.2441C78.4691 94.6449 76.8465 93.2038 77.6211 91.6069C78.1359 90.5463 79.1489 89.6148 81.1172 89.6147H85.9365C87.0364 89.6145 87.9302 88.7264 87.9365 87.6265L88.1543 48.9155C88.1614 47.6549 87.1394 46.63 85.8789 46.6333L78.7666 46.6548C77.1742 46.6594 76.0726 45.0647 76.6396 43.5767L83.125 26.5591C83.4604 25.6796 84.3039 25.0983 85.2451 25.0981H96.7051ZM27 45.2017C35.4994 41.585 49.67 41.7836 57.875 45.4917C63.8466 48.1904 64.3399 57.5906 58.2695 60.2915C56.1381 61.2398 54.4048 61.7709 53.5703 63.894C52.9588 65.4493 50.6768 67.8539 49.0059 67.854H35.792C34.0926 67.854 31.7969 65.4022 31.1895 63.8149C30.3655 61.6612 28.5992 61.0653 26.374 60.0806C20.2156 57.355 20.956 47.7737 27 45.2017Z" fill="white"/>
</svg>
