<svg width="120" height="120" viewBox="0 0 120 120" fill="none" xmlns="http://www.w3.org/2000/svg">
<rect width="120" height="120" rx="23.0939" fill="#FF6668"/>
<path d="M49.7676 54.3916C51.7181 54.3916 53.1815 56.1749 52.8011 58.088L48.9415 77.4911C47.8939 82.7571 42.9064 86.2812 37.5931 85.5091C33.4197 84.9024 30.0631 81.7641 29.1777 77.6409L25.0777 58.5436C24.6191 56.4072 26.2482 54.3918 28.4333 54.3916H49.7676ZM79.7315 54.4974C85.0449 53.7252 90.0323 57.2494 91.0799 62.5154L94.9395 81.9185C95.32 83.8316 93.8566 85.6149 91.906 85.6149H70.5717C68.3867 85.6147 66.7575 83.5993 67.2162 81.4628L71.3162 62.3656C72.2015 58.2423 75.5582 55.104 79.7315 54.4974ZM38.9304 34.3848C43.5076 34.3848 47.2184 38.0956 47.2184 42.6727C47.2182 47.2497 43.5075 50.9598 38.9304 50.9598C34.3537 50.9594 30.6435 47.2495 30.6434 42.6727C30.6434 38.0958 34.3536 34.3851 38.9304 34.3848ZM81.0689 34.3848C85.646 34.3848 89.3568 38.0956 89.3568 42.6727C89.3567 47.2497 85.6459 50.9598 81.0689 50.9598C76.4921 50.9594 72.782 47.2495 72.7818 42.6727C72.7818 38.0958 76.492 34.3851 81.0689 34.3848Z" fill="white"/>
</svg>
