<svg width="150" height="150" viewBox="0 0 150 150" fill="none" xmlns="http://www.w3.org/2000/svg">
<rect width="150" height="150" rx="28.8674" fill="#FF0084"/>
<path d="M94.9256 57.4734C97.8917 57.4736 100.296 59.8781 100.296 62.8443V65.8874H106.925L107.259 65.8916C114.244 66.0689 119.852 71.7874 119.852 78.8152L119.848 79.1488C119.673 86.0232 114.133 91.5644 107.259 91.7389L106.925 91.7431H99.9891C97.9286 105.961 85.6923 116.883 70.9036 116.883C54.671 116.883 41.512 103.724 41.5117 87.4915V62.8443C41.5117 59.878 43.9163 57.4734 46.8826 57.4734H94.9256ZM82.8474 75.792C80.4634 74.3657 77.1087 75.2184 74.017 77.6802C73.3088 78.2441 71.9484 79.6177 71.9484 79.6177C71.9322 79.6014 70.5837 78.2408 69.8797 77.6802C66.7888 75.2192 63.436 74.3659 61.0524 75.792C57.3434 78.0116 57.3873 84.9106 61.151 91.1997C63.5681 95.2381 66.9325 98.0396 70.0119 98.9423C70.6169 99.1652 71.2668 99.2669 71.9484 99.2549C72.6301 99.2672 73.2807 99.165 73.8859 98.9423C76.9658 98.0403 80.3313 95.2389 82.7488 91.1997C86.5125 84.9106 86.5564 78.0116 82.8474 75.792ZM100.296 86.3722H106.925C111.098 86.3718 114.481 82.9884 114.481 78.8152C114.481 74.6421 111.098 71.2586 106.925 71.2583H100.296V86.3722Z" fill="white"/>
<path d="M57.2427 34.4044C57.6615 33.3553 58.8517 32.8441 59.9009 33.2628C60.9494 33.6816 61.4595 34.8703 61.0415 35.9191C61.0411 35.92 61.0408 35.9228 61.0396 35.9259C61.0369 35.9326 61.033 35.9444 61.0269 35.9601C61.0147 35.9915 60.9957 36.0405 60.9712 36.1056C60.9221 36.236 60.8505 36.4303 60.7651 36.675C60.5939 37.1658 60.3697 37.8524 60.1567 38.632C59.7105 40.2658 59.3951 42.0297 59.5337 43.2677C59.6231 44.0661 59.9586 45.1719 60.3296 46.1798C60.5069 46.6615 60.6779 47.0835 60.8042 47.3839C60.8671 47.5334 60.9188 47.6514 60.9536 47.7306C60.971 47.7702 60.9842 47.8006 60.9927 47.8195C60.9969 47.8288 61.0007 47.8351 61.0024 47.839L61.0034 47.8419L61.0806 48.0373C61.413 49.0192 60.9543 50.1126 59.9907 50.5519C59.0272 50.9912 57.9007 50.6206 57.3774 49.7257L57.2808 49.5392V49.5382L57.2798 49.5373C57.2794 49.5365 57.2793 49.5354 57.2788 49.5343C57.2777 49.5319 57.2767 49.5285 57.2749 49.5246C57.2713 49.5167 57.2664 49.5059 57.2603 49.4923C57.2481 49.4651 57.2309 49.4267 57.2095 49.3781C57.1666 49.2807 57.1061 49.1419 57.0337 48.9699C56.8893 48.6266 56.6942 48.1457 56.4907 47.5929C56.1002 46.532 55.6157 45.0397 55.4683 43.7238C55.2377 41.6655 55.7428 39.2626 56.2095 37.5539C56.453 36.6623 56.7087 35.8839 56.9028 35.3273C57.0002 35.0482 57.0826 34.8222 57.1421 34.6642C57.1717 34.5854 57.1963 34.5235 57.2134 34.4796C57.2219 34.4576 57.2279 34.4395 57.2329 34.4269C57.2353 34.4207 57.2382 34.4161 57.2398 34.4123C57.2405 34.4104 57.2412 34.4087 57.2417 34.4074V34.4054L57.2427 34.4044Z" fill="white"/>
<path d="M79.3955 34.4044C79.8143 33.3553 81.0045 32.8441 82.0537 33.2628C83.1023 33.6816 83.6123 34.8703 83.1943 35.9191C83.194 35.92 83.1936 35.9228 83.1924 35.9259C83.1898 35.9326 83.1858 35.9444 83.1797 35.9601C83.1675 35.9915 83.1485 36.0405 83.124 36.1056C83.075 36.236 83.0033 36.4303 82.918 36.675C82.7467 37.1658 82.5225 37.8524 82.3096 38.632C81.8633 40.2658 81.548 42.0297 81.6865 43.2677C81.776 44.0661 82.1115 45.1719 82.4824 46.1798C82.6597 46.6615 82.8307 47.0835 82.957 47.3839C83.0199 47.5334 83.0716 47.6514 83.1065 47.7306C83.1239 47.7702 83.137 47.8006 83.1455 47.8195C83.1497 47.8288 83.1535 47.8351 83.1553 47.839L83.1563 47.8419L83.2334 48.0373C83.5659 49.0192 83.1071 50.1126 82.1436 50.5519C81.18 50.9912 80.0535 50.6206 79.5303 49.7257L79.4336 49.5392V49.5382L79.4326 49.5373C79.4323 49.5365 79.4321 49.5354 79.4316 49.5343C79.4305 49.5319 79.4295 49.5285 79.4277 49.5246C79.4242 49.5167 79.4192 49.5059 79.4131 49.4923C79.4009 49.4651 79.3837 49.4267 79.3623 49.3781C79.3195 49.2807 79.2589 49.1419 79.1865 48.9699C79.0421 48.6266 78.847 48.1457 78.6436 47.5929C78.2531 46.532 77.7685 45.0397 77.6211 43.7238C77.3905 41.6655 77.8956 39.2626 78.3623 37.5539C78.6058 36.6623 78.8615 35.8839 79.0557 35.3273C79.153 35.0482 79.2355 34.8222 79.2949 34.6642C79.3246 34.5854 79.3492 34.5235 79.3662 34.4796C79.3748 34.4576 79.3808 34.4395 79.3857 34.4269C79.3882 34.4207 79.3911 34.4161 79.3926 34.4123C79.3933 34.4104 79.394 34.4087 79.3945 34.4074V34.4054L79.3955 34.4044Z" fill="white"/>
<path d="M68.3193 34.4044C68.7381 33.3553 69.9284 32.8441 70.9775 33.2628C72.0261 33.6816 72.5361 34.8703 72.1182 35.9191C72.1178 35.92 72.1175 35.9228 72.1162 35.9259C72.1136 35.9326 72.1096 35.9444 72.1035 35.9601C72.0913 35.9915 72.0723 36.0405 72.0479 36.1056C71.9988 36.236 71.9272 36.4303 71.8418 36.675C71.6705 37.1658 71.4463 37.8524 71.2334 38.632C70.7872 40.2658 70.4718 42.0297 70.6104 43.2677C70.6998 44.0661 71.0353 45.1719 71.4063 46.1798C71.5835 46.6615 71.7545 47.0835 71.8809 47.3839C71.9437 47.5334 71.9954 47.6514 72.0303 47.7306C72.0477 47.7702 72.0609 47.8006 72.0693 47.8195C72.0735 47.8288 72.0773 47.8351 72.0791 47.839L72.0801 47.8419L72.1572 48.0373C72.4897 49.0192 72.031 50.1126 71.0674 50.5519C70.1038 50.9912 68.9774 50.6206 68.4541 49.7257L68.3574 49.5392V49.5382L68.3565 49.5373C68.3561 49.5365 68.356 49.5354 68.3555 49.5343C68.3544 49.5319 68.3533 49.5285 68.3516 49.5246C68.348 49.5167 68.343 49.5059 68.3369 49.4923C68.3247 49.4651 68.3075 49.4267 68.2861 49.3781C68.2433 49.2807 68.1827 49.1419 68.1104 48.9699C67.966 48.6266 67.7708 48.1457 67.5674 47.5929C67.1769 46.532 66.6924 45.0397 66.5449 43.7238C66.3144 41.6655 66.8194 39.2626 67.2861 37.5539C67.5296 36.6623 67.7853 35.8839 67.9795 35.3273C68.0769 35.0482 68.1593 34.8222 68.2188 34.6642C68.2484 34.5854 68.273 34.5235 68.29 34.4796C68.2986 34.4576 68.3046 34.4395 68.3096 34.4269C68.312 34.4207 68.3149 34.4161 68.3164 34.4123C68.3172 34.4104 68.3178 34.4087 68.3184 34.4074V34.4054L68.3193 34.4044Z" fill="white"/>
</svg>
