<svg width="150" height="150" viewBox="0 0 150 150" fill="none" xmlns="http://www.w3.org/2000/svg">
<rect width="150" height="150" rx="28.8674" fill="#1244A8"/>
<path d="M80.5693 108.511C85.5946 108.511 89.667 112.582 89.667 117.608V122.027H60.2568V117.608C60.2568 112.582 64.3284 108.511 69.3535 108.511H80.5693ZM128.403 108.511C133.428 108.511 137.5 112.582 137.5 117.608V122.027H108.091V117.608C108.091 112.582 112.162 108.511 117.188 108.511H128.403ZM32.6611 108.317C37.656 108.317 41.6981 112.358 41.6982 117.353V121.742H12.5V117.353C12.5001 112.358 16.5414 108.317 21.5361 108.317H32.6611ZM56.4639 107.421C58.038 107.421 59.461 107.966 60.6113 108.859C57.7356 110.645 55.8131 113.793 55.7373 117.41H46.2471C46.1864 114.474 44.9001 111.855 42.8721 110.039C44.0981 108.45 46.0203 107.421 48.1846 107.421H56.4639ZM101.739 107.405C103.904 107.406 105.826 108.435 107.052 110.025C105.024 111.856 103.737 114.474 103.677 117.396H94.2158C94.1553 113.793 92.2181 110.63 89.3271 108.844C90.4623 107.951 91.9001 107.421 93.459 107.421V107.405H101.739ZM28.9365 86.7316C33.7194 87.0194 37.6094 90.9243 37.9121 95.7072C38.2602 101.308 33.825 105.94 28.3154 105.94C28.134 105.94 27.9676 105.939 27.7861 105.924H16.3125L16.2676 105.697C17.6902 105.107 18.704 103.517 18.7041 101.641V96.3282C18.7041 90.8187 23.3513 86.3834 28.9365 86.7316ZM74.9697 86.4738C80.3279 86.4738 84.6572 90.8182 84.6572 96.1613C84.6572 101.519 80.3128 105.849 74.9697 105.849C69.6267 105.849 65.2832 101.504 65.2832 96.1613C65.2832 90.8031 69.6116 86.4738 74.9697 86.4738ZM122.788 86.4738C128.146 86.4739 132.475 90.8032 132.475 96.1613C132.475 101.519 128.131 105.849 122.788 105.849C117.43 105.849 113.101 101.504 113.101 96.1613C113.101 90.8031 117.445 86.4738 122.788 86.4738ZM97.0625 90.1105C101.24 89.8532 104.691 93.1531 104.676 97.255V101.221C104.676 102.628 105.433 103.809 106.492 104.248L106.462 104.414H97.9102L97.5166 104.43C93.4148 104.43 90.1148 100.963 90.3721 96.8009C90.584 93.2288 93.4904 90.3376 97.0625 90.1105ZM52.332 86.712C56.2824 86.712 59.492 89.9209 59.4922 93.8712C59.4922 97.8066 56.2826 101.016 52.332 101.016C48.3816 101.016 45.1885 97.8217 45.1885 93.8712C45.1887 89.9209 48.3817 86.7122 52.332 86.712ZM115.265 27.9728C118.655 27.9728 121.403 30.7211 121.403 34.1115V79.212C121.403 80.3165 120.508 81.212 119.403 81.212C118.299 81.2119 117.403 80.3164 117.403 79.212V34.1115C117.403 32.9303 116.446 31.9728 115.265 31.9728H34.6748C33.4938 31.973 32.5363 32.9304 32.5361 34.1115V79.212C32.536 80.3165 31.6406 81.212 30.5361 81.212C29.4316 81.212 28.5363 80.3165 28.5361 79.212V34.1115C28.5363 30.7213 31.2846 27.973 34.6748 27.9728H115.265ZM74.1592 38.1505C74.3598 38.1505 74.5225 38.3132 74.5225 38.5138V55.17L74.5273 55.3077C74.5747 55.9943 74.9738 56.6127 75.5879 56.9376L89.2617 64.173C90.192 64.6655 90.5933 65.8046 90.0293 66.6935L89.748 67.1173C86.7594 71.4654 81.0047 74.5988 74.8857 74.5988L74.416 74.5929C64.5679 74.3436 56.6623 66.2824 56.6621 56.3741C56.6623 46.3089 64.0939 38.1507 74.1592 38.1505ZM71.5225 41.3839C64.6136 42.6326 59.6623 48.7433 59.6621 56.3741C59.6623 64.7825 66.4773 71.5986 74.8857 71.5988C79.6733 71.5988 84.137 69.3037 86.6826 66.2023L74.1846 59.59C72.5473 58.7237 71.5226 57.0224 71.5225 55.17V41.3839ZM93.2461 54.4972C93.2612 54.7696 93.2764 55.0573 93.2764 55.3448C93.2764 58.0088 92.8222 60.6125 91.6719 62.8224L90.7793 62.3527L93.2461 54.4972ZM92.3389 50.0323C92.702 51.0613 92.9736 52.1206 93.125 53.2101L90.3408 62.0958L88.8115 61.2784L92.3389 50.0323ZM90.9609 47.0802C91.3696 47.7765 91.7329 48.5036 92.0508 49.2755L88.3574 61.0363L86.8291 60.2335L90.9609 47.0802ZM89.3711 44.795C89.81 45.3399 90.2339 45.9148 90.6123 46.505L86.3896 59.9767L84.8613 59.1593L89.3711 44.795ZM88.3721 43.7052C88.584 43.9171 88.7964 44.1286 88.9932 44.3556L84.4219 58.9318L82.8936 58.1144L86.9648 45.1427L88.3721 43.7052ZM82.4385 57.8722L80.9258 57.0548L83.5586 48.6398L86.1777 45.9454L82.4385 57.8722ZM80.4707 56.8126L78.9424 55.9952L80.1533 52.1359L82.7871 49.4415L80.4707 56.8126ZM78.4873 55.7531L77.2764 55.1027L79.3809 52.9386L78.4873 55.7531ZM77.3457 38.2589C80.8084 38.442 84.0742 39.7901 86.4014 41.7755C86.6149 41.9578 86.6223 42.2821 86.4268 42.4835L77.6152 51.5607C77.3014 51.884 76.753 51.6597 76.7559 51.2091L76.8359 38.7472C76.8379 38.4686 77.0675 38.2442 77.3457 38.2589Z" fill="white"/>
</svg>
