<svg width="144" height="150" viewBox="0 0 144 150" fill="none" xmlns="http://www.w3.org/2000/svg">
<rect width="143.571" height="150" rx="24.7435" fill="#1244A8"/>
<path fill-rule="evenodd" clip-rule="evenodd" d="M81.7555 61.7942C81.0028 59.4483 87.0373 58.8776 87.7215 61.1796C88.4099 63.4956 82.4622 63.9956 81.7555 61.7942ZM55.6463 61.5747C55.5478 60.3445 57.6667 59.8059 58.6475 59.7235C59.7461 59.6303 61.9303 60.1999 62.0309 61.3745C62.229 63.6722 55.8412 63.9988 55.6463 61.5747ZM59.9998 56.7415C59.4163 53.6825 63.8287 53.0637 64.3394 55.7822C64.8962 58.7448 60.5395 59.5736 59.9998 56.7415ZM44.5881 53.266C44.5292 54.1622 43.9296 56.0659 43.7936 58.4975C43.6116 61.7621 44.0913 62.3574 44.1063 64.1519C45.0774 64.2922 46.1277 64.6616 47.1963 64.8115C48.3441 64.9731 49.5347 65.0695 50.689 65.1926C58.3905 66.0192 64.3522 66.4914 72.208 65.2804C77.1707 64.5159 81.1377 63.7986 86.2268 64.1337C87.3178 64.2054 88.5427 64.4346 89.6862 64.5352C92.424 64.7751 97.2947 63.9817 99.692 63.0973C99.6363 62.3478 99.8098 61.1229 99.8172 60.2577C99.8258 59.2973 99.799 58.3776 99.7091 57.4214C99.5453 55.6708 99.1609 54.1558 98.7862 52.4651C96.997 52.6161 93.9509 53.6729 92.105 54.1676C89.546 54.8528 87.7333 53.8506 85.3809 53.0658C80.3347 51.3816 76.7317 55.537 71.451 54.689C69.0987 54.311 67.2142 53.462 64.9797 52.8163C61.8618 51.9148 61.1755 52.8377 58.6175 54.0669C55.8476 55.3978 54.4568 55.2276 51.4524 54.9021C50.2575 54.7725 49.0722 54.5659 47.8987 54.3057C46.7273 54.0455 45.6855 53.5069 44.5881 53.266Z" fill="#FFE6A1"/>
<path fill-rule="evenodd" clip-rule="evenodd" d="M44.5894 53.2649C45.6869 53.5058 46.7287 54.0444 47.9001 54.3046C49.0736 54.5648 50.2588 54.7725 51.4537 54.901C54.4581 55.2254 55.8479 55.3967 58.6189 54.0658C61.1768 52.8367 61.8642 51.9137 64.9811 52.8152C67.2156 53.4609 69.1001 54.311 71.4524 54.6879C76.7331 55.5348 80.336 51.3805 85.3823 53.0647C87.7346 53.8495 89.5473 54.8517 92.1063 54.1665C93.9522 53.6718 96.9984 52.615 98.7875 52.4641C98.1012 50.0892 97.3442 48.3632 96.1622 46.2197C95.8891 46.815 95.4309 46.7111 94.751 46.83C91.2937 47.4339 86.7517 49.6363 84.4379 48.6427C82.6766 47.8868 81.7248 46.179 79.4152 46.3203C74.8305 46.6009 72.6163 49.435 59.9477 48.0956C58.2024 47.9114 48.6828 46.5484 47.6924 45.8674C46.6495 46.6212 44.9824 51.8281 44.5884 53.2639L44.5894 53.2649Z" fill="white"/>
<path fill-rule="evenodd" clip-rule="evenodd" d="M44.1064 64.1495C44.3795 65.5415 44.5797 66.7621 45.0444 68.1465C45.4416 69.3296 46.1708 70.7269 46.4716 71.789C49.2191 72.0974 55.1015 72.7141 57.5952 72.3918C58.8897 72.2248 59.4818 71.6627 60.5825 71.3233C62.0333 70.8757 62.1778 71.6723 63.2785 72.2302C64.7165 72.9582 65.1437 72.7987 66.7123 72.7473C68.8837 72.6756 70.8034 71.5567 72.7221 70.7087C73.5541 70.3414 74.3689 69.6969 75.2565 69.2932C78.9098 67.6283 79.6143 66.5511 84.7965 67.6261C86.9754 68.078 89.9423 70.7301 93.4564 71.0845C94.359 71.1755 96.8002 70.9967 97.3805 71.2633C98.4009 68.2311 99.2468 66.4077 99.6932 63.097C97.2949 63.9814 92.4242 64.7748 89.6875 64.535C88.544 64.4344 87.3191 64.2052 86.228 64.1335C81.139 63.7984 77.1731 64.5157 72.2093 65.2802C64.3535 66.4901 58.3907 66.0179 50.6902 65.1924C49.5349 65.0682 48.3443 64.9719 47.1976 64.8112C46.129 64.6603 45.0786 64.2909 44.1075 64.1517L44.1064 64.1495Z" fill="white"/>
<path fill-rule="evenodd" clip-rule="evenodd" d="M92.0437 79.1686C90.8563 78.9716 84.5006 80.4641 81.6097 80.5851C77.9886 80.7372 74.6897 79.2735 71.2774 78.9834C67.4303 78.6568 63.8199 79.5294 59.96 79.2189C56.6804 78.9545 53.1707 77.9801 49.9468 77.2595C50.2498 77.9822 51.1203 78.6964 51.6513 79.3378C52.3666 80.2018 53.0283 80.4513 53.7146 81.1162C54.9245 82.2876 56.7458 83.4782 58.2276 84.2866C66.0438 88.5501 74.724 89.1647 82.9631 85.5575C85.4696 84.46 90.5094 81.3625 92.0437 79.1697V79.1686Z" fill="#FFFCDB"/>
<path fill-rule="evenodd" clip-rule="evenodd" d="M87.0098 73.2187C86.7453 74.026 85.5247 74.9393 84.7452 75.2487C83.5332 75.7305 82.2451 75.889 80.9453 75.8269C79.1476 75.7412 75.3187 74.6855 76.1057 72.2079C76.7524 70.1704 80.32 69.4583 82.1627 69.5708C83.8373 69.6736 87.786 70.8578 87.0109 73.2187H87.0098ZM46.4718 71.7903C46.915 72.3193 47.0692 73.2776 47.5939 73.738C47.792 73.678 52.957 74.5035 53.7344 74.5838C56.106 74.8279 58.2378 74.9682 60.6297 74.9264C65.7584 74.8376 68.3174 73.5206 73.3251 76.0089C77.4077 78.039 80.759 78.766 85.3245 77.6964C87.9948 77.07 94.2542 73.7572 96.0358 73.7926L97.3796 71.2636C96.7992 70.997 94.358 71.1758 93.4554 71.0848C89.9414 70.7303 86.9745 68.0782 84.7956 67.6264C79.6133 66.5514 78.9088 67.6285 75.2556 69.2935C74.368 69.6982 73.5531 70.3417 72.7212 70.7089C70.8025 71.5569 68.8827 72.6747 66.7113 72.7476C65.1427 72.8 64.7155 72.9585 63.2776 72.2304C62.1769 71.6726 62.0323 70.876 60.5815 71.3235C59.4809 71.664 58.8888 72.2251 57.5943 72.3921C55.1017 72.7144 49.2181 72.0976 46.4707 71.7893L46.4718 71.7903Z" fill="#FFE6A1"/>
<path fill-rule="evenodd" clip-rule="evenodd" d="M55.3032 37.4817C55.4017 37.4699 58.1085 38.4496 58.7059 38.5588C63.204 39.379 67.0114 39.5535 71.6122 39.5C75.5963 39.4539 84.3911 39.092 87.7413 37.0534C87.0475 36.0898 82.043 33.8402 80.74 33.4291C74.6402 31.5072 68.3187 31.4986 62.2735 33.6678C61.039 34.1111 55.7658 36.4892 55.3032 37.4828V37.4817Z" fill="#FFFCDB"/>
<path fill-rule="evenodd" clip-rule="evenodd" d="M49.9476 77.2604C53.1715 77.98 56.6812 78.9554 59.9608 79.2198C63.8207 79.5314 67.43 78.6577 71.2782 78.9843C74.6905 79.2744 77.9893 80.7381 81.6105 80.5861C84.5014 80.4651 90.8571 78.9725 92.0445 79.1695C93.2383 77.9693 95.2909 75.4692 96.0372 73.7914C94.2566 73.756 87.9972 77.0688 85.3258 77.6952C80.7593 78.7659 77.409 78.0378 73.3264 76.0077C68.3187 73.5183 65.7597 74.8353 60.6311 74.9252C58.2391 74.967 56.1073 74.8267 53.7357 74.5826C52.9584 74.5023 47.7933 73.6768 47.5952 73.7368C47.7226 74.4413 49.4315 76.7626 49.9486 77.2604H49.9476Z" fill="white"/>
<path fill-rule="evenodd" clip-rule="evenodd" d="M55.3032 37.4816C54.6286 37.5855 51.4551 40.6637 50.9443 41.3179C51.7035 42.0974 59.2584 43.2131 60.7274 43.3737C71.0179 44.5044 74.8371 41.5406 82.2678 42.1413C84.1309 42.2923 92.204 42.9497 93.4353 42.3469C93.1687 41.4785 88.7917 37.4998 87.7424 37.0522C84.3921 39.0909 75.5963 39.4528 71.6132 39.4988C67.0135 39.5523 63.2061 39.3778 58.707 38.5577C58.1095 38.4484 55.4028 37.4688 55.3043 37.4805L55.3032 37.4816Z" fill="#FFE6A1"/>
<path fill-rule="evenodd" clip-rule="evenodd" d="M47.6934 45.8687C48.6838 46.5496 58.2023 47.9116 59.9487 48.0968C72.6173 49.4363 74.8315 46.6021 79.4162 46.3216C81.7258 46.1802 82.6776 47.888 84.4389 48.6439C86.7527 49.6375 91.2947 47.4351 94.752 46.8312C95.4319 46.7124 95.8901 46.8162 96.1632 46.2209C95.8548 45.7305 95.4469 44.8708 95.0443 44.526C92.738 45.646 86.1595 44.8997 83.4774 44.6266C76.1292 43.8804 70.1568 46.8655 60.0225 45.2733C57.8126 44.9264 51.1796 44.0324 49.4975 43.103C49.1163 43.3707 47.8197 45.3751 47.6944 45.8697L47.6934 45.8687Z" fill="#FFFCDB"/>
<path fill-rule="evenodd" clip-rule="evenodd" d="M49.4967 43.1018C51.1788 44.0322 57.8118 44.9252 60.0217 45.2721C70.156 46.8632 76.1283 43.8781 83.4766 44.6254C86.1587 44.8984 92.7371 45.6447 95.0434 44.5248C94.9 44.0686 93.8132 42.5739 93.4342 42.3469C92.2039 42.9497 84.1297 42.2923 82.2667 42.1414C74.836 41.5407 71.0168 44.5044 60.7262 43.3737C59.2583 43.2121 51.7023 42.0975 50.9432 41.318C50.6348 41.5921 49.6605 42.7313 49.4956 43.1029L49.4967 43.1018Z" fill="white"/>
<path fill-rule="evenodd" clip-rule="evenodd" d="M87.0098 73.2186C87.785 70.8577 83.8362 69.6724 82.1617 69.5707C80.319 69.4582 76.7514 70.1703 76.1047 72.2078C75.3177 74.6854 79.1476 75.7411 80.9443 75.8268C82.2441 75.8889 83.5332 75.7304 84.7442 75.2486C85.5237 74.9392 86.7432 74.0248 87.0087 73.2186H87.0098Z" fill="white"/>
<path fill-rule="evenodd" clip-rule="evenodd" d="M55.6469 61.5737C55.8417 63.9967 62.2296 63.6712 62.0315 61.3735C61.9308 60.1989 59.7466 59.6293 58.6481 59.7225C57.6684 59.806 55.5484 60.3446 55.6469 61.5737Z" fill="white"/>
<path fill-rule="evenodd" clip-rule="evenodd" d="M81.7558 61.7942C82.4624 63.9967 88.4102 63.4967 87.7217 61.1797C87.0376 58.8776 81.0031 59.4473 81.7558 61.7942Z" fill="white"/>
<path fill-rule="evenodd" clip-rule="evenodd" d="M86.9262 56.8254C87.6311 53.7238 82.9782 53.0476 82.4412 55.8884C81.8622 58.9458 86.2455 59.8198 86.9262 56.8254Z" fill="#727271"/>
<path fill-rule="evenodd" clip-rule="evenodd" d="M60.0028 56.8423C60.5629 59.7817 65.0847 58.9215 64.5069 55.8466C63.9768 53.025 59.3972 53.6673 60.0028 56.8423Z" fill="#727271"/>
<path fill-rule="evenodd" clip-rule="evenodd" d="M77.9394 59.4107C78.1224 58.9288 77.9967 58.2969 77.3726 58.3642C76.4905 58.459 76.8455 60.4295 74.5266 60.7846C71.1303 61.304 71.224 57.0255 70.1853 58.5748C69.6593 59.3588 70.9418 61.8288 73.6389 61.9832C75.5808 62.0946 77.2348 61.2599 77.9394 59.4107Z" fill="#727271"/>
<path d="M80.8898 60.0596C80.8898 49.8497 79.7946 40.6502 78.048 34.041C77.1722 30.7272 76.1506 28.1349 75.0675 26.4014C73.9435 24.6026 72.9747 24.0635 72.298 24.0635C71.7799 24.0636 71.0843 24.3689 70.2452 25.3916C69.4157 26.4026 68.5856 27.9547 67.8087 30.0254C67.5657 30.6732 66.8432 31.0018 66.1954 30.7588C65.5478 30.5156 65.22 29.7932 65.463 29.1455C66.2875 26.9479 67.2344 25.1121 68.3087 23.8027C69.3733 22.5053 70.7084 21.5577 72.298 21.5576C74.3395 21.5576 75.961 23.1033 77.1925 25.0742C78.4647 27.1105 79.5642 29.9737 80.4698 33.4004C82.286 40.2727 83.3946 49.6977 83.3946 60.0596C83.3946 70.4214 82.286 79.8465 80.4698 86.7188C79.5642 90.1455 78.4648 93.0087 77.1925 95.0449C75.961 97.0158 74.3395 98.5615 72.298 98.5615C70.7949 98.5614 69.5182 97.7118 68.4884 96.5283C67.4537 95.3392 66.5397 93.6733 65.7384 91.6816C65.4804 91.0398 65.7909 90.3099 66.4327 90.0518C67.0746 89.7935 67.8044 90.1052 68.0626 90.7471C68.8113 92.6079 69.5997 93.9891 70.378 94.8838C71.1612 95.7838 71.8081 96.0556 72.298 96.0557C72.9747 96.0557 73.9436 95.5164 75.0675 93.7178C76.1506 91.9843 77.1722 89.392 78.048 86.0781C79.7946 79.469 80.8898 70.2695 80.8898 60.0596Z" fill="white"/>
<path d="M111.067 124.299C110.097 124.299 109.208 124.078 108.4 123.637C107.606 123.182 106.967 122.513 106.482 121.632C106.012 120.75 105.777 119.648 105.777 118.326C105.777 117.003 106.004 115.901 106.46 115.02C106.93 114.138 107.562 113.477 108.355 113.036C109.164 112.595 110.067 112.375 111.067 112.375C112.213 112.375 113.227 112.624 114.108 113.124C114.99 113.624 115.688 114.322 116.202 115.218C116.716 116.1 116.973 117.135 116.973 118.326C116.973 119.516 116.716 120.559 116.202 121.455C115.688 122.352 114.99 123.05 114.108 123.549C113.227 124.049 112.213 124.299 111.067 124.299ZM104.873 128.442V112.485H106.901V115.637L106.769 118.348L106.989 121.059V128.442H104.873ZM110.89 122.447C111.64 122.447 112.308 122.278 112.896 121.94C113.498 121.602 113.969 121.125 114.307 120.508C114.659 119.876 114.835 119.149 114.835 118.326C114.835 117.488 114.659 116.768 114.307 116.166C113.969 115.549 113.498 115.071 112.896 114.733C112.308 114.395 111.64 114.226 110.89 114.226C110.155 114.226 109.487 114.395 108.884 114.733C108.297 115.071 107.827 115.549 107.474 116.166C107.136 116.768 106.967 117.488 106.967 118.326C106.967 119.149 107.136 119.876 107.474 120.508C107.827 121.125 108.297 121.602 108.884 121.94C109.487 122.278 110.155 122.447 110.89 122.447Z" fill="white"/>
<path d="M96.2348 124.299C94.9858 124.299 93.8837 124.042 92.9286 123.527C91.9882 123.013 91.2535 122.308 90.7246 121.411C90.2103 120.515 89.9531 119.486 89.9531 118.326C89.9531 117.165 90.2029 116.136 90.7025 115.24C91.2168 114.344 91.9148 113.646 92.7964 113.146C93.6927 112.632 94.6993 112.375 95.816 112.375C96.9474 112.375 97.9466 112.624 98.8135 113.124C99.6805 113.624 100.356 114.329 100.841 115.24C101.341 116.136 101.591 117.187 101.591 118.392C101.591 118.48 101.583 118.583 101.569 118.7C101.569 118.818 101.561 118.928 101.547 119.031H91.6062V117.51H100.445L99.585 118.039C99.5997 117.29 99.4454 116.621 99.1221 116.033C98.7988 115.446 98.3507 114.99 97.7776 114.667C97.2193 114.329 96.5654 114.16 95.816 114.16C95.0813 114.16 94.4274 114.329 93.8543 114.667C93.2813 114.99 92.8331 115.453 92.5099 116.055C92.1866 116.643 92.025 117.319 92.025 118.083V118.436C92.025 119.215 92.2013 119.913 92.5539 120.53C92.9213 121.132 93.4282 121.602 94.0748 121.94C94.7213 122.278 95.4633 122.447 96.3009 122.447C96.9915 122.447 97.616 122.33 98.1744 122.095C98.7474 121.86 99.247 121.507 99.6731 121.037L100.841 122.403C100.312 123.02 99.6511 123.491 98.8576 123.814C98.0788 124.137 97.2046 124.299 96.2348 124.299Z" fill="white"/>
<path d="M82.9942 124.166V113.785L83.5232 114.336H78.7183V112.485H89.386V114.336H84.6032L85.1101 113.785V124.166H82.9942Z" fill="white"/>
<path d="M65.376 124.166V112.485H67.4919V120.992L74.6552 112.485H76.5727V124.166H74.4568V115.659L67.3156 124.166H65.376Z" fill="white"/>
<path d="M50.46 124.166V112.485H61.282V124.166H59.1661V113.807L59.673 114.336H52.0689L52.5759 113.807V124.166H50.46Z" fill="white"/>
<path d="M26.5977 124.166V108.738H28.7797V115.35H32.7691V117.334H28.7797V124.166H26.5977ZM39.3813 124.343C38.2646 124.343 37.2287 124.152 36.2736 123.77C35.3185 123.373 34.4883 122.822 33.783 122.117C33.0777 121.397 32.5266 120.559 32.1299 119.604C31.7479 118.649 31.5568 117.598 31.5568 116.452C31.5568 115.306 31.7479 114.255 32.1299 113.3C32.5266 112.345 33.0777 111.515 33.783 110.81C34.4883 110.09 35.3185 109.539 36.2736 109.157C37.2287 108.76 38.2646 108.562 39.3813 108.562C40.4981 108.562 41.534 108.76 42.4891 109.157C43.4589 109.539 44.2964 110.09 45.0017 110.81C45.707 111.515 46.2507 112.345 46.6328 113.3C47.0295 114.255 47.2279 115.306 47.2279 116.452C47.2279 117.598 47.0295 118.649 46.6328 119.604C46.2507 120.559 45.707 121.397 45.0017 122.117C44.2964 122.822 43.4589 123.373 42.4891 123.77C41.534 124.152 40.4981 124.343 39.3813 124.343ZM39.3813 122.359C40.1895 122.359 40.9315 122.219 41.6075 121.94C42.2981 121.646 42.8932 121.235 43.3928 120.706C43.907 120.177 44.3038 119.553 44.583 118.833C44.8768 118.113 45.0238 117.319 45.0238 116.452C45.0238 115.585 44.8768 114.792 44.583 114.072C44.3038 113.352 43.907 112.727 43.3928 112.198C42.8932 111.669 42.2981 111.265 41.6075 110.986C40.9315 110.692 40.1968 110.545 39.4034 110.545C38.6099 110.545 37.8679 110.692 37.1772 110.986C36.5013 111.265 35.9062 111.669 35.3919 112.198C34.8924 112.727 34.4956 113.352 34.2017 114.072C33.9226 114.792 33.783 115.585 33.783 116.452C33.783 117.319 33.9226 118.113 34.2017 118.833C34.4956 119.553 34.8924 120.177 35.3919 120.706C35.9062 121.235 36.5013 121.646 37.1772 121.94C37.8679 122.219 38.6026 122.359 39.3813 122.359Z" fill="white"/>
</svg>
