<svg width="150" height="150" viewBox="0 0 150 150" fill="none" xmlns="http://www.w3.org/2000/svg">
<rect width="150" height="150" rx="28.8674" fill="#0D51DA"/>
<path d="M115.085 89.3015C110.229 89.3015 106.293 85.532 106.293 80.8821C106.293 76.2322 110.229 72.4627 115.085 72.4627C119.94 72.4627 123.876 76.2322 123.876 80.8821C123.876 85.532 119.94 89.3015 115.085 89.3015Z" fill="white"/>
<path d="M118.216 91.9382L118.719 91.9515C118.86 91.9587 119 91.9692 119.139 91.9822C119.32 91.9991 119.499 92.0195 119.677 92.0461C119.936 92.0849 120.191 92.1366 120.443 92.1952C124.761 93.2018 127.979 97.0696 127.988 101.693C127.988 101.699 127.989 101.705 127.989 101.711V119.589L127.982 119.841C127.976 119.968 127.963 120.094 127.947 120.219C127.921 120.419 127.884 120.615 127.835 120.806C127.786 120.996 127.725 121.18 127.655 121.36C127.043 122.932 125.642 124.108 123.937 124.402C123.823 124.421 123.708 124.438 123.592 124.45C123.565 124.452 123.538 124.454 123.511 124.456C123.389 124.466 123.267 124.473 123.143 124.474C123.13 124.474 123.115 124.475 123.102 124.475H115.961C113.715 124.475 112.138 123.021 111.281 121.089L109.791 117.737C109.439 116.946 109.717 116.026 110.33 115.414C111.233 114.514 112.028 113.371 112.711 112.2C114.078 109.855 115.115 107.184 115.712 105.547C115.97 104.839 115.606 104.056 114.899 103.798C114.192 103.54 113.409 103.905 113.15 104.612C112.563 106.219 111.197 108.28 109.958 110.405C108.933 112.163 107.581 112.844 105.293 112.844C101.885 112.844 97.1098 113.188 93.8132 112.309C91.419 111.671 90.584 110.192 91.3001 108.008C91.4899 107.614 91.7351 107.252 92.0259 106.932C92.2201 106.718 92.4347 106.523 92.6664 106.35C93.0134 106.09 93.399 105.879 93.813 105.728C93.8819 105.703 93.9516 105.679 94.0221 105.657C94.4453 105.525 94.8953 105.455 95.3617 105.455H103.155C105.022 101.601 106.321 96.1479 109.958 93.6201C110.067 93.5448 110.177 93.4713 110.289 93.4004C111.407 92.6908 112.689 92.2075 114.077 92.0221C114.216 92.0036 114.356 91.988 114.497 91.9755C114.778 91.9505 115.064 91.9382 115.353 91.9382H118.216Z" fill="white"/>
<path d="M102.645 115.768C103.644 115.298 104.836 115.727 105.306 116.727L107.19 120.733C108.239 122.966 106.607 125.528 104.145 125.528H45.7425C43.2807 125.528 41.648 122.966 42.6975 120.733L44.5813 116.727C45.0513 115.727 46.2429 115.298 47.2425 115.768C48.2419 116.238 48.6714 117.429 48.2014 118.429L46.7434 121.528H103.144L101.686 118.429C101.216 117.429 101.645 116.238 102.645 115.768ZM85.5784 90.6631C90.1401 90.6632 94.2918 93.2985 96.2327 97.4268L96.8557 98.7539L97.5178 100.162C97.9876 101.162 97.5583 102.353 96.5589 102.823C95.5595 103.293 94.3688 102.863 93.8987 101.864L93.2366 100.455L92.6126 99.1289C91.3312 96.4034 88.5901 94.6632 85.5784 94.6631H64.3089C61.2971 94.6632 58.5561 96.4034 57.2747 99.1289L57.0696 99.5654L56.0266 101.784C55.5566 102.784 54.365 103.213 53.3655 102.743C52.3661 102.273 51.9368 101.082 52.4065 100.083L53.4495 97.8633L53.6546 97.4268C55.5954 93.2985 59.7472 90.6632 64.3089 90.6631H85.5784Z" fill="white"/>
<path d="M34.6752 89.3015C39.5305 89.3015 43.4666 85.532 43.4666 80.8821C43.4666 76.2322 39.5305 72.4627 34.6752 72.4627C29.8198 72.4627 25.8838 76.2322 25.8838 80.8821C25.8838 85.532 29.8198 89.3015 34.6752 89.3015Z" fill="white"/>
<path d="M31.784 91.9382L31.2807 91.9515C31.14 91.9587 31.0002 91.9692 30.8612 91.9822C30.6804 91.9991 30.5009 92.0195 30.3232 92.0461C30.0643 92.0849 29.8093 92.1366 29.5575 92.1952C25.2388 93.2018 22.0206 97.0696 22.0122 101.693C22.0122 101.699 22.0109 101.705 22.0108 101.711V119.589L22.0175 119.841C22.024 119.968 22.0374 120.094 22.0535 120.219C22.0792 120.419 22.1162 120.615 22.1653 120.806C22.214 120.996 22.275 121.18 22.3451 121.36C22.9575 122.932 24.3582 124.108 26.0631 124.402C26.1769 124.421 26.2917 124.438 26.408 124.45C26.435 124.452 26.4622 124.454 26.4893 124.456C26.6106 124.466 26.7331 124.473 26.8568 124.474C26.8704 124.474 26.8845 124.475 26.8981 124.475H34.0386C36.2846 124.475 37.8616 123.021 38.7194 121.089L40.2095 117.737C40.5612 116.946 40.2833 116.026 39.6702 115.414C38.767 114.514 37.972 113.371 37.2892 112.2C35.9224 109.855 34.8854 107.184 34.2876 105.547C34.0298 104.839 34.3941 104.056 35.1012 103.798C35.8083 103.54 36.5913 103.905 36.8497 104.612C37.4365 106.219 38.8028 108.28 40.0418 110.405C41.0666 112.163 42.4186 112.844 44.7066 112.844C48.1154 112.844 52.8902 113.188 56.1868 112.309C58.581 111.671 59.416 110.192 58.6999 108.008C58.5101 107.614 58.2649 107.252 57.9741 106.932C57.7799 106.718 57.5653 106.523 57.3336 106.35C56.9866 106.09 56.601 105.879 56.187 105.728C56.1181 105.703 56.0484 105.679 55.9779 105.657C55.5547 105.525 55.1047 105.455 54.6383 105.455H46.8453C44.978 101.601 43.6788 96.1479 40.0418 93.6201C39.9333 93.5448 39.8233 93.4713 39.7115 93.4004C38.5931 92.6908 37.3108 92.2075 35.9229 92.0221C35.7841 92.0036 35.6442 91.988 35.5034 91.9755C35.2218 91.9505 34.9362 91.9382 34.6471 91.9382H31.784Z" fill="white"/>
<path d="M30.6689 41.333C30.6689 32.0212 38.2174 24.4719 47.5293 24.4717H57.582L57.9893 24.4766C66.5257 24.6791 73.4895 31.2252 74.3525 39.583L70.8711 39.9424C70.1876 33.3227 64.667 28.1359 57.9043 27.9756L57.582 27.9717H47.5293C40.1505 27.9719 34.1689 33.9541 34.1689 41.333L34.1729 41.6553C34.2516 44.983 35.5458 48.0059 37.6309 50.3047C38.2748 51.0147 38.5944 52.0283 38.3594 53.0469L37.3252 57.5293L39.8857 54.7559L40.0527 54.5879C40.8556 53.8434 41.9626 53.6298 42.9424 53.8945L43.1504 53.959L43.6689 54.127C44.8897 54.4952 46.1851 54.6943 47.5293 54.6943H57.582C60.2096 54.6943 62.6551 53.9368 64.7188 52.6299L66.5918 55.5869C63.9845 57.2381 60.8921 58.1943 57.582 58.1943H47.5293C45.6896 58.1943 43.9174 57.8945 42.2568 57.3477L37.0205 63.0205C35.3683 64.8107 32.4133 63.2498 32.9609 60.876L34.8945 52.4941C32.3508 49.6166 30.7717 45.8606 30.6738 41.7402L30.6689 41.333Z" fill="white"/>
<path d="M44.7862 40.1859C44.7862 41.5483 43.6817 42.6527 42.3194 42.6527C40.957 42.6527 39.8525 41.5483 39.8525 40.1859C39.8525 38.8235 40.957 37.7191 42.3194 37.7191C43.6817 37.7191 44.7862 38.8235 44.7862 40.1859Z" fill="white"/>
<path d="M54.4873 40.1859C54.4873 41.5483 53.3829 42.6527 52.0205 42.6527C50.6581 42.6527 49.5537 41.5483 49.5537 40.1859C49.5537 38.8235 50.6581 37.7191 52.0205 37.7191C53.3829 37.7191 54.4873 38.8235 54.4873 40.1859Z" fill="white"/>
<path d="M64.189 40.1859C64.189 41.5483 63.0846 42.6527 61.7222 42.6527C60.3598 42.6527 59.2554 41.5483 59.2554 40.1859C59.2554 38.8235 60.3598 37.7191 61.7222 37.7191C63.0846 37.7191 64.189 38.8235 64.189 40.1859Z" fill="white"/>
<path d="M67.77 52.6497C67.77 45.2708 73.7516 39.2886 81.1304 39.2884H91.1831C98.5619 39.2886 104.543 45.2708 104.543 52.6497L104.54 52.972C104.461 56.2997 103.167 59.3226 101.082 61.6214C100.438 62.3314 100.118 63.345 100.353 64.3636L101.388 68.847L98.8267 66.0726L98.6597 65.9046C97.8568 65.1602 96.7498 64.9465 95.77 65.2112L95.562 65.2757L95.0435 65.4437C93.8227 65.8119 92.5273 66.011 91.1831 66.011H81.1304C73.7517 66.0108 67.7702 60.0285 67.77 52.6497ZM64.27 52.6497C64.2702 61.9614 71.8186 69.5108 81.1304 69.511H91.1831C93.0228 69.511 94.795 69.2112 96.4556 68.6644L102.011 74.6839C103.577 76.3798 106.376 74.9005 105.857 72.6517L103.818 63.8109C106.362 60.9333 107.941 57.1773 108.039 53.0569L108.043 52.6497C108.043 43.3379 100.495 35.7886 91.1831 35.7884H81.1304C71.8186 35.7886 64.27 43.3379 64.27 52.6497Z" fill="white"/>
<path d="M93.9331 51.9367C93.9331 53.299 95.0375 54.4035 96.3999 54.4035C97.7623 54.4035 98.8667 53.299 98.8667 51.9367C98.8667 50.5743 97.7623 49.4698 96.3999 49.4698C95.0375 49.4698 93.9331 50.5743 93.9331 51.9367Z" fill="white"/>
<path d="M84.2319 51.9367C84.2319 53.299 85.3363 54.4035 86.6987 54.4035C88.0611 54.4035 89.1655 53.299 89.1655 51.9367C89.1655 50.5743 88.0611 49.4698 86.6987 49.4698C85.3363 49.4698 84.2319 50.5743 84.2319 51.9367Z" fill="white"/>
<path d="M74.5302 51.9367C74.5302 53.299 75.6347 54.4035 76.9971 54.4035C78.3594 54.4035 79.4639 53.299 79.4639 51.9367C79.4639 50.5743 78.3594 49.4698 76.9971 49.4698C75.6347 49.4698 74.5302 50.5743 74.5302 51.9367Z" fill="white"/>
</svg>
