<svg width="120" height="120" viewBox="0 0 120 120" fill="none" xmlns="http://www.w3.org/2000/svg">
<rect width="120" height="120" rx="19.245" fill="#1DB4FF"/>
<path d="M42.7522 73.0684C43.855 73.1238 44.7045 74.0623 44.6497 75.1651C44.4596 78.9581 44.1366 81.9038 43.4426 84.6289C42.743 87.3759 41.6878 89.8184 40.1165 92.6406C39.5791 93.6056 38.3608 93.9523 37.3957 93.4151C36.4309 92.8776 36.0841 91.6593 36.6213 90.6944C38.0757 88.0821 38.9748 85.9655 39.5666 83.6416C40.164 81.296 40.4705 78.6575 40.6555 74.9658C40.7109 73.8629 41.6493 73.0134 42.7522 73.0684ZM59.4856 73.0654C60.5901 73.0654 61.4855 73.961 61.4856 75.0654V91.668C61.4854 92.7724 60.59 93.668 59.4856 93.668C58.3813 93.6679 57.4858 92.7723 57.4856 91.668V75.0654C57.4857 73.9611 58.3812 73.0656 59.4856 73.0654ZM76.219 73.0684C77.3221 73.0131 78.2612 73.8628 78.3167 74.9658C78.5016 78.6575 78.8082 81.296 79.4055 83.6416C79.9974 85.9655 80.8964 88.0821 82.3508 90.6944C82.8881 91.6594 82.5405 92.8777 81.5754 93.4151C80.6105 93.952 79.393 93.6055 78.8557 92.6406C77.2844 89.8184 76.2282 87.3759 75.5286 84.6289C74.8346 81.9039 74.5116 78.958 74.3215 75.1651C74.2667 74.0624 75.1164 73.1239 76.219 73.0684ZM100.561 26.332C102.612 26.332 104.468 27.5844 105.17 29.5117C109.884 42.4501 110.161 51.0672 105.173 64.6904C104.471 66.6087 102.62 67.8495 100.577 67.8496H18.6565C16.4846 67.8495 14.5477 66.4457 13.9407 64.3604C10.3538 52.037 10.1829 43.5146 13.9709 29.8857C14.5594 27.7689 16.5121 26.3321 18.7092 26.332H100.561ZM29.7141 56.8164C26.953 56.8165 24.7144 59.0544 24.7141 61.8154V63.9561H94.5598V61.8154C94.5595 59.0544 92.3209 56.8166 89.5598 56.8164H29.7141ZM54.3782 47.7383C53.2738 47.7385 52.3782 48.6339 52.3782 49.7383C52.3784 50.8426 53.2739 51.7381 54.3782 51.7383H64.593L64.7971 51.7275C65.8056 51.6252 66.5928 50.7737 66.593 49.7383C66.593 48.7028 65.8056 47.8514 64.7971 47.749L64.593 47.7383H54.3782Z" fill="white"/>
</svg>
