<svg width="120" height="120" viewBox="0 0 120 120" fill="none" xmlns="http://www.w3.org/2000/svg">
<rect width="120" height="120" rx="23.0939" fill="#3F6BC2"/>
<path d="M81.9932 20.2461C86.885 20.2461 90.8506 24.2117 90.8506 29.1035V58.165C90.8505 63.0568 86.8849 67.0234 81.9932 67.0234H38.0068C33.1151 67.0233 29.1495 63.0568 29.1494 58.165V29.1035C29.1494 24.2117 33.1151 20.2462 38.0068 20.2461H81.9932Z" fill="white"/>
<path d="M34.5717 90.0576C38.1767 90.0576 41.0978 92.9787 41.0978 96.5837V97.4758C41.0978 98.734 40.0778 99.754 38.8196 99.754H22.2782C21.02 99.754 20 98.734 20 97.4758V96.5837C20 92.9787 22.9211 90.0576 26.5261 90.0576H34.5717ZM64.0228 90.0576C67.6278 90.0576 70.5489 92.9787 70.5489 96.5837V97.4758C70.5489 98.734 69.5289 99.754 68.2707 99.754H51.7293C50.4711 99.754 49.4511 98.734 49.4511 97.4758V96.5837C49.4511 92.9787 52.3722 90.0576 55.9772 90.0576H64.0228ZM93.4739 90.0576C97.0789 90.0576 100 92.9787 100 96.5837V97.4758C100 98.734 98.98 99.754 97.7218 99.754H81.1804C79.9222 99.754 78.9022 98.734 78.9022 97.4758V96.5837C78.9022 92.9787 81.8233 90.0576 85.4283 90.0576H93.4739ZM30.5492 73.8804C34.3931 73.8804 37.4988 76.9969 37.4988 80.8299C37.4987 84.6737 34.3822 87.7794 30.5492 87.7794C26.7163 87.7794 23.5998 84.6629 23.5997 80.8299C23.5997 76.986 26.7054 73.8804 30.5492 73.8804ZM60.0004 73.8804C63.8442 73.8804 66.9499 76.9969 66.9499 80.8299C66.9498 84.6737 63.8333 87.7794 60.0004 87.7794C56.1674 87.7794 53.0509 84.6629 53.0508 80.8299C53.0508 76.986 56.1565 73.8804 60.0004 73.8804ZM89.4515 73.8804C93.2953 73.8804 96.401 76.9969 96.401 80.8299C96.401 84.6737 93.2844 87.7794 89.4515 87.7794C85.6185 87.7794 82.502 84.6629 82.502 80.8299C82.502 76.986 85.6076 73.8804 89.4515 73.8804Z" fill="white"/>
</svg>
