<svg width="150" height="150" viewBox="0 0 150 150" fill="none" xmlns="http://www.w3.org/2000/svg">
<rect width="150" height="150" rx="27.618" fill="#1244A8"/>
<path d="M111.685 61.6911V31.1589C111.685 28.2272 109.383 25.833 106.488 25.6862L106.206 25.6794H43.0435C40.0173 25.6795 37.5641 28.1327 37.564 31.1589V61.6911C37.564 64.7174 40.0172 67.1704 43.0435 67.1706H59.3667C60.4711 67.1706 61.3665 68.0662 61.3667 69.1706C61.3667 70.2752 60.4713 71.1706 59.3667 71.1706H43.0435C37.8081 71.1704 33.564 66.9265 33.564 61.6911V31.1589C33.5641 25.9236 37.8081 21.6795 43.0435 21.6794H106.206L106.694 21.6921C111.702 21.9461 115.685 26.0872 115.685 31.1589V61.6911C115.685 66.9266 111.441 71.1706 106.206 71.1706H90.1431C89.0386 71.1705 88.1431 70.2751 88.1431 69.1706C88.1433 68.0663 89.0387 67.1707 90.1431 67.1706H106.206C109.232 67.1706 111.685 64.7175 111.685 61.6911Z" fill="white"/>
<path d="M74.6245 75.8898C78.6502 75.8898 81.9136 72.7645 81.9136 68.9092C81.9136 65.0539 78.6502 61.9285 74.6245 61.9285C70.5989 61.9285 67.3354 65.0539 67.3354 68.9092C67.3354 72.7645 70.5989 75.8898 74.6245 75.8898Z" fill="white"/>
<path d="M74.6246 78.5743C67.3209 78.5743 61.373 83.2653 61.373 89.0452C61.373 89.4361 61.6938 89.7433 62.102 89.7433H87.1472C87.5554 89.7433 87.8761 89.4361 87.8761 89.0452C87.8761 83.2653 81.9282 78.5743 74.6246 78.5743Z" fill="white"/>
<path d="M114.755 92.8188C109.899 92.8188 105.963 89.0493 105.963 84.3994C105.963 79.7495 109.899 75.98 114.755 75.98C119.61 75.98 123.546 79.7495 123.546 84.3994C123.546 89.0493 119.61 92.8188 114.755 92.8188Z" fill="white"/>
<path d="M117.885 95.4554L118.389 95.4688C118.529 95.4759 118.669 95.4864 118.808 95.4994C118.989 95.5163 119.168 95.5367 119.346 95.5633C119.605 95.6021 119.86 95.6538 120.112 95.7125C124.431 96.719 127.649 100.587 127.657 105.21C127.657 105.216 127.659 105.222 127.659 105.229V123.106L127.652 123.358C127.645 123.486 127.632 123.612 127.616 123.736C127.59 123.936 127.553 124.132 127.504 124.324C127.455 124.513 127.394 124.698 127.324 124.877C126.712 126.45 125.311 127.626 123.606 127.919C123.493 127.939 123.378 127.955 123.261 127.967C123.234 127.97 123.207 127.971 123.18 127.974C123.059 127.984 122.936 127.99 122.813 127.991C122.799 127.991 122.785 127.992 122.771 127.992H115.631C113.385 127.992 111.808 126.539 110.95 124.606L109.46 121.254C109.108 120.463 109.386 119.543 109.999 118.932C110.902 118.031 111.697 116.888 112.38 115.717C113.747 113.372 114.784 110.701 115.382 109.064C115.64 108.357 115.275 107.574 114.568 107.315C113.861 107.058 113.078 107.422 112.82 108.129C112.233 109.736 110.867 111.797 109.628 113.922C108.603 115.68 107.251 116.361 104.963 116.361C101.554 116.361 96.7793 116.705 93.4826 115.826C91.0884 115.188 90.2534 113.709 90.9696 111.525C91.1593 111.131 91.4045 110.769 91.6953 110.449C91.8896 110.235 92.1041 110.04 92.3359 109.867C92.6828 109.607 93.0684 109.397 93.4824 109.245C93.5513 109.22 93.6211 109.196 93.6915 109.174C94.1147 109.043 94.5647 108.972 95.0312 108.972H102.824C104.691 105.118 105.991 99.6651 109.628 97.1374C109.736 97.062 109.846 96.9885 109.958 96.9176C111.076 96.208 112.359 95.7247 113.747 95.5393C113.885 95.5208 114.025 95.5052 114.166 95.4927C114.448 95.4677 114.733 95.4555 115.022 95.4554H117.885Z" fill="white"/>
<path d="M35.246 92.8188C40.1013 92.8188 44.0374 89.0493 44.0374 84.3994C44.0374 79.7495 40.1013 75.98 35.246 75.98C30.3906 75.98 26.4546 79.7495 26.4546 84.3994C26.4546 89.0493 30.3906 92.8188 35.246 92.8188Z" fill="white"/>
<path d="M32.1151 95.4554L31.6117 95.4688C31.4711 95.4759 31.3312 95.4864 31.1922 95.4994C31.0115 95.5163 30.832 95.5367 30.6542 95.5633C30.3953 95.6021 30.1403 95.6538 29.8885 95.7125C25.5699 96.719 22.3517 100.587 22.3432 105.21C22.3432 105.216 22.3419 105.222 22.3419 105.229V123.106L22.3486 123.358C22.3551 123.486 22.3684 123.612 22.3845 123.736C22.4103 123.936 22.4472 124.132 22.4964 124.324C22.545 124.513 22.6061 124.698 22.6762 124.877C23.2885 126.45 24.6893 127.626 26.3942 127.919C26.508 127.939 26.6228 127.955 26.7391 127.967C26.7661 127.97 26.7932 127.971 26.8203 127.974C26.9417 127.984 27.0642 127.99 27.1879 127.991C27.2014 127.991 27.2156 127.992 27.2292 127.992H34.3696C36.6157 127.992 38.1926 126.539 39.0504 124.606L40.5405 121.254C40.8922 120.463 40.6144 119.543 40.0013 118.932C39.0981 118.031 38.3031 116.888 37.6202 115.717C36.2534 113.372 35.2164 110.701 34.6186 109.064C34.3609 108.357 34.7252 107.574 35.4323 107.315C36.1394 107.058 36.9224 107.422 37.1808 108.129C37.7676 109.736 39.1339 111.797 40.3728 113.922C41.3976 115.68 42.7496 116.361 45.0377 116.361C48.4464 116.361 53.2212 116.705 56.5179 115.826C58.9121 115.188 59.7471 113.709 59.0309 111.525C58.8412 111.131 58.596 110.769 58.3052 110.449C58.1109 110.235 57.8964 110.04 57.6646 109.867C57.3176 109.607 56.9321 109.397 56.5181 109.245C56.4492 109.22 56.3794 109.196 56.309 109.174C55.8858 109.043 55.4358 108.972 54.9693 108.972H47.1763C45.3091 105.118 44.0098 99.6651 40.3728 97.1374C40.2643 97.062 40.1544 96.9885 40.0425 96.9176C38.9242 96.208 37.6418 95.7247 36.2539 95.5393C36.1151 95.5208 35.9753 95.5052 35.8345 95.4927C35.5529 95.4677 35.2673 95.4555 34.9782 95.4554H32.1151Z" fill="white"/>
<path d="M47.2427 118.56C46.2431 118.09 45.0515 118.519 44.5815 119.519L42.6978 123.526C41.648 125.759 43.2807 128.32 45.7427 128.321H76.3013C77.4057 128.321 78.301 127.425 78.3013 126.321C78.3013 125.216 77.4058 124.321 76.3013 124.321H46.7437L48.2017 121.221C48.6716 120.222 48.2421 119.03 47.2427 118.56ZM64.3091 93.4554C59.7473 93.4555 55.5957 96.0908 53.6548 100.219L52.4067 102.875C51.9369 103.875 52.3662 105.066 53.3657 105.536C54.3653 106.005 55.5569 105.576 56.0269 104.577L57.2749 101.921C58.5563 99.1957 61.2973 97.4555 64.3091 97.4554H76.3013C77.4058 97.4554 78.3013 96.56 78.3013 95.4554C78.3013 94.3509 77.4058 93.4554 76.3013 93.4554H64.3091Z" fill="white"/>
<path d="M102.645 118.56C103.644 118.09 104.836 118.519 105.306 119.519L107.189 123.526C108.239 125.759 106.606 128.32 104.145 128.321H73.5859C72.4815 128.321 71.5862 127.425 71.5859 126.321C71.5859 125.216 72.4814 124.321 73.5859 124.321H103.144L101.686 121.221C101.216 120.222 101.645 119.03 102.645 118.56ZM85.5781 93.4554C90.1399 93.4555 94.2915 96.0908 96.2324 100.219L97.5176 102.954C97.9875 103.954 97.5582 105.146 96.5586 105.616C95.5592 106.085 94.3685 105.656 93.8984 104.657L92.6123 101.921C91.3309 99.1957 88.5899 97.4555 85.5781 97.4554H73.5859C72.4814 97.4554 71.5859 96.56 71.5859 95.4554C71.5859 94.3509 72.4814 93.4554 73.5859 93.4554H85.5781Z" fill="white"/>
<path d="M62.7471 44.4252C63.8515 44.4253 64.7471 45.3207 64.7471 46.4252C64.7471 47.5297 63.8515 48.4251 62.7471 48.4252H44.3291C43.2245 48.4252 42.3291 47.5297 42.3291 46.4252C42.3291 45.3206 43.2245 44.4252 44.3291 44.4252H62.7471Z" fill="white"/>
<path d="M94.748 34.4958C95.8525 34.4959 96.748 35.3913 96.748 36.4958C96.748 37.6003 95.8525 38.4957 94.748 38.4958H44.3291C43.2245 38.4958 42.3291 37.6004 42.3291 36.4958C42.3291 35.3912 43.2245 34.4958 44.3291 34.4958H94.748Z" fill="white"/>
</svg>
