<svg width="120" height="120" viewBox="0 0 120 120" fill="none" xmlns="http://www.w3.org/2000/svg">
<rect width="120" height="120" rx="23.0939" fill="#1E5DD9"/>
<path d="M56.1201 50.2114C65.2845 50.387 69.0526 56.1335 69.0527 63.0825L69.0498 77.7944C69.0497 84.7433 64.3953 89.3763 57.4131 89.3765H48.1025L37.7451 96.2329C36.209 97.2517 34.1377 96.163 34.1377 94.3101V89.3765C27.1554 89.3764 22.5001 84.7434 22.5 77.7944L22.5029 63.0825C22.4421 55.6067 27.4121 50.2114 35.5635 50.2114H56.1201ZM34.8711 64.8325C33.1584 64.8327 31.7571 66.2276 31.7568 67.9321C31.7568 69.6369 33.1582 71.0316 34.8711 71.0317C36.6153 71.0317 37.9863 69.637 37.9863 67.9321C37.9861 66.2275 36.584 64.8325 34.8711 64.8325ZM45.7725 64.8325C44.0596 64.8325 42.6585 66.2275 42.6582 67.9321C42.6582 69.637 44.0283 71.0317 45.7725 71.0317C47.5166 71.0317 48.8867 69.637 48.8867 67.9321C48.8865 66.2275 47.4853 64.8325 45.7725 64.8325ZM56.6426 64.8325C54.9297 64.8325 53.5276 66.2275 53.5273 67.9321C53.5273 69.637 54.9296 71.0317 56.6426 71.0317C58.3866 71.0316 59.7568 69.6369 59.7568 67.9321C59.7566 66.2276 58.3553 64.8327 56.6426 64.8325ZM84.4365 23.3765C92.5881 23.3765 97.5581 28.7716 97.4971 36.2476L97.5 50.9595C97.4999 57.5708 93.286 62.0861 86.8633 62.5093C86.3122 62.5456 85.8623 62.9892 85.8623 63.5415V67.4751C85.8621 69.328 83.7909 70.4161 82.2549 69.397L76.5518 65.6226L76.5527 63.0835C76.5527 58.3412 75.2646 53.2013 71.6182 49.1362C67.8606 44.9475 62.4707 42.8674 56.2646 42.7485L56.1924 42.7476H52.9482C51.8438 42.7476 50.9484 41.852 50.9482 40.7476L50.9473 36.2476C50.9473 29.2984 54.7153 23.552 63.8799 23.3765H84.4365Z" fill="white"/>
</svg>
