<svg width="144" height="150" viewBox="0 0 144 150" fill="none" xmlns="http://www.w3.org/2000/svg">
<rect width="143.571" height="150" rx="24.7435" fill="#1244A8"/>
<path fill-rule="evenodd" clip-rule="evenodd" d="M60.4466 67.4074C64.1954 64.9538 64.6525 69.1213 61.4536 71.3086C58.0037 73.6663 56.9286 69.7108 60.4466 67.4074ZM58.3489 60.6471C61.0663 58.8738 63.518 62.8446 61.1571 64.5914C58.4808 66.5707 55.5731 62.4593 58.3489 60.6471ZM67.321 60.1454C67.9889 59.8846 70.9321 61.253 72.1793 58.4804C72.821 57.0529 72.1044 56.5376 72.2434 55.7319C72.4251 54.6799 73.6685 54.9147 73.8208 56.6712C74.3374 62.6016 65.6925 62.655 67.319 60.1445L67.321 60.1454ZM81.6108 47.7594C85.5015 45.5317 85.7473 49.4906 82.5309 51.8472C79.1482 54.3272 77.5398 50.0899 81.6108 47.7594ZM74.0968 46.041C76.9618 44.3012 79.3598 48.5142 76.7574 50.2181C74.1085 51.9535 71.2699 47.7573 74.0968 46.041ZM45.1126 64.7741C45.5236 68.3582 47.0811 71.6669 48.9567 74.7018C50.8528 77.7712 52.5626 79.1319 55.0596 81.3306C63.692 77.7998 77.6368 64.1114 83.7909 56.7712C86.0941 54.0241 89.83 49.3502 91.5697 46.1758C92.9276 43.6985 93.2383 44.6762 91.4957 42.4852C87.8973 37.9604 82.204 34.9388 76.5991 33.7905C76.011 34.324 74.3907 37.3744 73.7884 38.2987C70.9821 42.5971 67.2073 46.969 63.6169 50.5669C59.7606 54.4311 54.9108 58.4552 50.3157 61.4814C48.9456 62.3835 46.2063 63.8662 45.1126 64.7741Z" fill="#FFD0B3"/>
<path fill-rule="evenodd" clip-rule="evenodd" d="M81.9816 33.6241C81.9805 33.6252 81.981 33.6272 81.9824 33.6279C85.6922 35.4367 83.7734 34.6545 90.3794 31.584C102.304 26.0432 107.338 30.7653 100.772 43.3523C96.204 52.1112 88.1055 61.6468 81.1073 68.6262C73.3787 76.333 62.9212 85.5509 52.9917 90.0734C39.8618 96.0527 37.0377 88.9582 42.9809 77.6577C43.8965 75.9171 44.5821 74.8159 45.0349 74.0265C46.0496 72.2576 43.4944 71.8818 42.4183 73.6141C41.4076 75.241 40.4358 76.9808 39.7845 78.2258C38.3453 80.9762 37.0192 83.8646 36.1916 86.8685C33.3031 97.3621 39.2638 99.2618 48.0694 96.1537C67.3982 89.3299 97.1187 59.7426 105.951 40.5059C108.155 35.7019 112.255 24.6981 103.145 24.603C96.6916 24.5364 87.2202 29.9005 81.9819 33.6238C81.9818 33.6239 81.9817 33.624 81.9816 33.6241Z" fill="white"/>
<path fill-rule="evenodd" clip-rule="evenodd" d="M85.6047 35.3498C85.6048 35.35 85.6049 35.3501 85.605 35.3503C85.8444 35.5898 87.621 36.7639 87.8632 36.8177C88.4821 36.9538 95.3861 33.0792 96.2246 37.5984C96.7288 40.3176 93.9273 45.4227 92.4935 47.7404C88.7347 53.8134 83.5783 59.8886 78.5357 64.9558C73.0665 70.451 66.7576 76.0759 60.2085 80.2345C57.5218 81.9416 51.0411 85.6767 47.9007 84.4931C45.7753 83.6919 46.1894 80.9256 46.7174 79.199C47.0228 78.2011 47.3663 77.5939 47.5728 77.0892C48.2692 75.3873 45.4598 75.2437 44.5897 76.8637C42.8687 80.0681 41.3264 84.4791 41.1788 87.0203C40.7296 94.7818 52.2278 89.3447 55.3385 87.6462C70.3205 79.4615 89.7564 59.9085 98.4107 45.1381C108.029 28.7231 99.548 26.9338 85.6054 35.348C85.6048 35.3484 85.6045 35.3491 85.6047 35.3498Z" fill="white"/>
<path fill-rule="evenodd" clip-rule="evenodd" d="M44.885 56.8427C45.6492 56.2258 47.9676 54.9205 48.9795 54.2666C53.8782 51.0992 61.4927 44.5457 64.7071 39.9325L68.0784 35.0105C68.5095 34.347 68.6325 33.5906 69.2842 33.3647C66.9638 33.0959 61.3275 35.1361 59.2093 36.2249C56.4798 37.6282 53.8426 39.582 51.7725 41.8441C48.5288 45.3885 45.0228 51.9746 44.887 56.8436L44.885 56.8427Z" fill="white"/>
<path fill-rule="evenodd" clip-rule="evenodd" d="M73.1028 86.8146C77.4661 84.2987 83.712 78.7532 87.3478 75.1516C90.1565 72.3706 93.3341 68.4807 95.6894 65.2161C96.2234 64.4764 97.6477 62.0573 98.2108 61.699C98.0777 60.3098 98.3749 58.8043 98.0201 56.2163C96.989 57.2564 95.7347 59.1102 94.7036 60.3229C87.2841 69.0563 84.5624 71.6863 76.1197 79.5093C73.8364 81.6247 68.8344 85.3589 67.6528 86.5925C68.2271 86.9208 72.3451 87.0193 73.1038 86.8126L73.1028 86.8146Z" fill="#FFD0B3"/>
<path fill-rule="evenodd" clip-rule="evenodd" d="M44.8851 56.8425C44.6155 57.7635 44.6126 61.132 44.8077 62.0936C50.7131 58.5549 56.9763 53.9164 61.8025 48.9989C64.0922 46.6666 66.5023 44.1775 68.5038 41.5983C69.481 40.3391 73.5155 34.5981 73.5697 33.3601C72.3448 33.2961 70.4588 33.1306 69.2823 33.3636C68.6307 33.5894 68.5076 34.3458 68.0766 35.0093L64.7052 39.9313C61.4923 44.544 53.8783 51.0989 48.9777 54.2654C47.9657 54.9193 45.6473 56.2246 44.8832 56.8416L44.8851 56.8425Z" fill="#FFD0B3"/>
<path fill-rule="evenodd" clip-rule="evenodd" d="M73.1032 86.8146C74.9578 87.5143 81.9041 84.9699 83.7552 84.0025C86.8353 82.3925 89.2179 80.5282 91.4976 77.9155C95.0779 73.8113 98.2108 67.0334 98.2111 61.699C97.648 62.0573 96.2237 64.4764 95.6897 65.2161C93.3344 68.4807 90.1568 72.3706 87.3481 75.1516C83.7123 78.7532 77.4659 84.2973 73.1032 86.8146Z" fill="white"/>
<path fill-rule="evenodd" clip-rule="evenodd" d="M44.8078 62.0937C44.6734 62.8365 44.9423 64.0052 45.1111 64.7747C46.2043 63.8654 48.9441 62.3841 50.3141 61.4821C54.9093 58.4558 59.759 54.4318 63.6154 50.5676C67.2057 46.9696 70.9805 42.5978 73.7869 38.2993C74.3897 37.3764 76.0095 34.3246 76.5976 33.7911L73.5704 33.3617C73.5156 34.5982 69.4816 40.3407 68.5045 41.5999C66.5024 44.1777 64.0909 46.6673 61.8031 49.0005C56.9784 53.9175 50.7143 58.558 44.8084 62.0952L44.8078 62.0937Z" fill="white"/>
<path fill-rule="evenodd" clip-rule="evenodd" d="M81.6077 47.7607C77.5372 50.0926 79.1465 54.328 82.5278 51.8485C85.7422 49.491 85.4979 45.5316 81.6077 47.7607Z" fill="#FFFFFD"/>
<path fill-rule="evenodd" clip-rule="evenodd" d="M74.0958 46.043C71.2689 47.7593 74.107 51.9541 76.7564 50.2201C79.3588 48.5162 76.9609 44.3032 74.0958 46.043Z" fill="#515151"/>
<path fill-rule="evenodd" clip-rule="evenodd" d="M60.4461 67.4074C56.9281 69.7108 58.0033 73.6663 61.4531 71.3086C64.6535 69.1208 64.1949 64.9539 60.4461 67.4074Z" fill="#FFFFFD"/>
<path fill-rule="evenodd" clip-rule="evenodd" d="M58.3472 60.6477C55.5729 62.4594 58.4786 66.5699 61.1554 64.592C63.5169 62.8467 61.0647 58.8745 58.3472 60.6477Z" fill="#515151"/>
<path fill-rule="evenodd" clip-rule="evenodd" d="M67.3194 60.146C65.6928 62.6565 74.3377 62.6031 73.8211 56.6727C73.6684 54.9147 72.424 54.6819 72.2438 55.7333C72.1048 56.539 72.8214 57.0543 72.1797 58.4819C70.9319 61.253 67.9873 59.8851 67.3213 60.1469L67.3194 60.146Z" fill="#515151"/>
<path d="M100.436 126.336V114.654H102.551V119.613H109.208V114.654H111.324V126.336H109.208V121.443H102.551V126.336H100.436Z" fill="white"/>
<path d="M91.4542 126.468C90.4844 126.468 89.5954 126.248 88.7873 125.807C87.9938 125.351 87.3546 124.683 86.8697 123.801C86.3995 122.919 86.1644 121.817 86.1644 120.495C86.1644 119.173 86.3922 118.07 86.8477 117.189C87.3179 116.307 87.9497 115.646 88.7432 115.205C89.5514 114.764 90.455 114.544 91.4542 114.544C92.6003 114.544 93.6142 114.794 94.4958 115.293C95.3775 115.793 96.0754 116.491 96.5897 117.387C97.104 118.269 97.3612 119.305 97.3612 120.495C97.3612 121.685 97.104 122.728 96.5897 123.625C96.0754 124.521 95.3775 125.219 94.4958 125.719C93.6142 126.218 92.6003 126.468 91.4542 126.468ZM85.2607 130.612V114.654H87.2885V117.806L87.1562 120.517L87.3767 123.228V130.612H85.2607ZM91.2779 124.617C92.0273 124.617 92.6958 124.448 93.2836 124.11C93.886 123.772 94.3563 123.294 94.6942 122.677C95.0469 122.045 95.2232 121.318 95.2232 120.495C95.2232 119.657 95.0469 118.937 94.6942 118.335C94.3563 117.718 93.886 117.24 93.2836 116.902C92.6958 116.564 92.0273 116.395 91.2779 116.395C90.5432 116.395 89.8746 116.564 89.2722 116.902C88.6844 117.24 88.2142 117.718 87.8616 118.335C87.5236 118.937 87.3546 119.657 87.3546 120.495C87.3546 121.318 87.5236 122.045 87.8616 122.677C88.2142 123.294 88.6844 123.772 89.2722 124.11C89.8746 124.448 90.5432 124.617 91.2779 124.617Z" fill="white"/>
<path d="M73.2646 130.744C72.7063 130.744 72.1626 130.648 71.6336 130.457C71.1046 130.281 70.6491 130.017 70.2671 129.664L71.1708 128.077C71.4646 128.356 71.7879 128.569 72.1406 128.716C72.4932 128.863 72.8679 128.937 73.2646 128.937C73.7789 128.937 74.2051 128.804 74.543 128.54C74.881 128.275 75.1969 127.805 75.4908 127.129L76.2181 125.52L76.4385 125.256L81.023 114.654H83.0948L77.4304 127.504C77.0924 128.327 76.7104 128.973 76.2842 129.444C75.8728 129.914 75.4173 130.244 74.9177 130.435C74.4181 130.641 73.8671 130.744 73.2646 130.744ZM76.0418 126.711L70.7079 114.654H72.912L77.4524 125.057L76.0418 126.711Z" fill="white"/>
<path d="M64.1138 126.336V115.955L64.6428 116.506H59.8379V114.654H70.5056V116.506H65.7228L66.2297 115.955V126.336H64.1138Z" fill="white"/>
<path d="M55.9837 126.336V123.867L55.8735 123.404V119.195C55.8735 118.298 55.609 117.608 55.08 117.123C54.5658 116.623 53.787 116.373 52.7437 116.373C52.0531 116.373 51.3772 116.491 50.716 116.726C50.0547 116.946 49.4964 117.248 49.0409 117.63L48.1592 116.043C48.7617 115.558 49.4817 115.19 50.3192 114.941C51.1715 114.676 52.0605 114.544 52.9862 114.544C54.5878 114.544 55.8221 114.933 56.689 115.712C57.556 116.491 57.9894 117.681 57.9894 119.283V126.336H55.9837ZM52.1486 126.468C51.2817 126.468 50.5176 126.321 49.8564 126.027C49.2098 125.733 48.7102 125.329 48.3576 124.815C48.0049 124.286 47.8286 123.691 47.8286 123.03C47.8286 122.398 47.9756 121.825 48.2694 121.31C48.578 120.796 49.0702 120.385 49.7462 120.076C50.4368 119.768 51.3625 119.613 52.5233 119.613H56.2262V121.134H52.6115C51.5535 121.134 50.8409 121.31 50.4735 121.663C50.1062 122.016 49.9225 122.442 49.9225 122.941C49.9225 123.515 50.1502 123.977 50.6058 124.33C51.0613 124.668 51.6931 124.837 52.5013 124.837C53.2947 124.837 53.9853 124.661 54.5731 124.308C55.1756 123.955 55.609 123.441 55.8735 122.765L56.2923 124.22C56.0131 124.91 55.5209 125.461 54.8156 125.873C54.1102 126.27 53.2213 126.468 52.1486 126.468Z" fill="white"/>
<path d="M40.4022 126.512C39.2267 126.512 38.1393 126.321 37.1401 125.939C36.1556 125.542 35.2961 124.991 34.5614 124.286C33.8414 123.566 33.2756 122.729 32.8642 121.773C32.4528 120.818 32.2471 119.768 32.2471 118.622C32.2471 117.475 32.4528 116.425 32.8642 115.47C33.2756 114.515 33.8487 113.684 34.5834 112.979C35.3181 112.259 36.1777 111.708 37.1622 111.326C38.1614 110.929 39.2487 110.731 40.4242 110.731C41.6144 110.731 42.7091 110.937 43.7083 111.348C44.7222 111.745 45.5818 112.34 46.2871 113.133L44.8544 114.522C44.2667 113.905 43.6054 113.449 42.8707 113.155C42.1361 112.847 41.3499 112.693 40.5124 112.693C39.6454 112.693 38.8373 112.84 38.0879 113.133C37.3532 113.427 36.714 113.839 36.1703 114.368C35.6267 114.897 35.2005 115.529 34.892 116.263C34.5981 116.983 34.4512 117.769 34.4512 118.622C34.4512 119.474 34.5981 120.267 34.892 121.002C35.2005 121.722 35.6267 122.346 36.1703 122.875C36.714 123.404 37.3532 123.816 38.0879 124.11C38.8373 124.404 39.6454 124.551 40.5124 124.551C41.3499 124.551 42.1361 124.404 42.8707 124.11C43.6054 123.801 44.2667 123.331 44.8544 122.699L46.2871 124.088C45.5818 124.881 44.7222 125.484 43.7083 125.895C42.7091 126.306 41.6071 126.512 40.4022 126.512Z" fill="white"/>
</svg>
