<svg width="65" height="65" viewBox="0 0 65 65" fill="none" xmlns="http://www.w3.org/2000/svg">
<rect width="65" height="65" rx="13.68" fill="#CE7878"/>
<path d="M47.6673 47.4088C47.6673 42.2257 43.4675 37.1593 38.2844 37.1593H26.7169C21.5338 37.1593 17.334 42.2257 17.334 47.4088V47.6336C17.334 49.5482 18.8861 51.1003 20.8007 51.1003H44.2007C46.1152 51.1003 47.6673 49.5482 47.6673 47.6336V47.4088Z" fill="white"/>
<path d="M42.4929 23.8921C42.4929 18.3812 38.0277 13.9005 32.5012 13.9004C26.9746 13.9004 22.5095 18.3655 22.5095 23.8921C22.5096 29.4029 26.9903 33.8838 32.5012 33.8838C38.012 33.8837 42.4928 29.4185 42.4929 23.8921Z" fill="white"/>
</svg>
