<svg width="73" height="73" viewBox="0 0 73 73" fill="none" xmlns="http://www.w3.org/2000/svg">
<rect x="4" y="4" width="65" height="65" rx="13.68" fill="#A9A9A9"/>
<path d="M51.6673 51.4088C51.6673 46.2257 47.4675 41.1593 42.2844 41.1593H30.7169C25.5338 41.1593 21.334 46.2257 21.334 51.4088V51.6336C21.334 53.5482 22.8861 55.1003 24.8007 55.1003H48.2007C50.1152 55.1003 51.6673 53.5482 51.6673 51.6336V51.4088Z" fill="white"/>
<path d="M46.4929 27.8921C46.4929 22.3812 42.0277 17.9005 36.5012 17.9004C30.9746 17.9004 26.5095 22.3655 26.5095 27.8921C26.5096 33.4029 30.9903 37.8838 36.5012 37.8838C42.012 37.8837 46.4928 33.4185 46.4929 27.8921Z" fill="white"/>
</svg>
