<svg width="120" height="120" viewBox="0 0 120 120" fill="none" xmlns="http://www.w3.org/2000/svg">
<rect width="120" height="120" rx="19.245" fill="#767676"/>
<path d="M77.1222 32.027C78.0626 32.0271 78.9071 32.6053 79.2471 33.482L83.2784 43.8862C83.5301 44.5357 84.1547 44.9646 84.8512 44.9647H89.3036C92.4494 44.9647 95 47.5145 95 50.6603V82.2766C94.9998 85.4223 92.4493 87.973 89.3036 87.973H30.6964C27.5507 87.973 25.0002 85.4223 25 82.2766V50.6603C25 47.5145 27.5506 44.9647 30.6964 44.9647H35.1488C35.8452 44.9646 36.4698 44.5363 36.7216 43.887L40.7546 33.482C41.0946 32.6055 41.9376 32.0273 42.8778 32.027H77.1222ZM60 48.2825C51.0813 48.2825 43.8508 55.513 43.8508 64.4318C43.8508 73.3505 51.0813 80.5802 60 80.5802C68.9187 80.5802 76.1492 73.3505 76.1492 64.4318C76.1492 55.513 68.9187 48.2825 60 48.2825ZM60 53.7302C65.9444 53.7302 70.7632 58.5492 70.7634 64.4936C70.7634 70.4381 65.9445 75.2578 60 75.2578C54.0555 75.2577 49.2366 70.438 49.2366 64.4936C49.2368 58.5492 54.0556 53.7302 60 53.7302Z" fill="white"/>
</svg>
