<?xml version="1.0" encoding="UTF-8"?>
<svg xmlns="http://www.w3.org/2000/svg" viewBox="0 0 1000 800" width="1000" height="800">
  <!-- Background -->
  <rect width="1000" height="800" fill="#f5f5f5"/>
  
  <!-- Grid lines for reference -->
  <defs>
    <pattern id="grid" width="100" height="100" patternUnits="userSpaceOnUse">
      <path d="M 100 0 L 0 0 0 100" fill="none" stroke="#e0e0e0" stroke-width="1"/>
    </pattern>
  </defs>
  <rect width="1000" height="800" fill="url(#grid)" opacity="0.3"/>
  
  <!-- Meeting room 1 -->
  <rect x="50" y="50" width="200" height="150" fill="#e3f2fd" stroke="#1976d2" stroke-width="2" rx="5"/>
  <text x="150" y="130" text-anchor="middle" font-size="14" fill="#1565c0" font-weight="bold">Переговорная 1</text>
  
  <!-- Meeting room 2 -->
  <rect x="300" y="50" width="200" height="150" fill="#e3f2fd" stroke="#1976d2" stroke-width="2" rx="5"/>
  <text x="400" y="130" text-anchor="middle" font-size="14" fill="#1565c0" font-weight="bold">Переговорная 2</text>
  
  <!-- Meeting room 3 -->
  <rect x="550" y="50" width="200" height="150" fill="#e3f2fd" stroke="#1976d2" stroke-width="2" rx="5"/>
  <text x="650" y="130" text-anchor="middle" font-size="14" fill="#1565c0" font-weight="bold">Переговорная 3</text>
  
  <!-- Meeting room 4 -->
  <rect x="800" y="50" width="150" height="150" fill="#e3f2fd" stroke="#1976d2" stroke-width="2" rx="5"/>
  <text x="875" y="130" text-anchor="middle" font-size="14" fill="#1565c0" font-weight="bold">Переговорная 4</text>
  
  <!-- Workstations area 1 -->
  <rect x="50" y="250" width="300" height="200" fill="#f3e5f5" stroke="#7b1fa2" stroke-width="2" rx="5"/>
  <text x="200" y="350" text-anchor="middle" font-size="14" fill="#6a1b9a" font-weight="bold">Рабочие места - Сектор A</text>
  
  <!-- Workstations area 2 -->
  <rect x="400" y="250" width="300" height="200" fill="#f3e5f5" stroke="#7b1fa2" stroke-width="2" rx="5"/>
  <text x="550" y="350" text-anchor="middle" font-size="14" fill="#6a1b9a" font-weight="bold">Рабочие места - Сектор B</text>
  
  <!-- Workstations area 3 -->
  <rect x="750" y="250" width="200" height="200" fill="#f3e5f5" stroke="#7b1fa2" stroke-width="2" rx="5"/>
  <text x="850" y="350" text-anchor="middle" font-size="12" fill="#6a1b9a" font-weight="bold">Рабочие места - Сектор C</text>
  
  <!-- Common area -->
  <ellipse cx="150" cy="600" rx="100" ry="80" fill="#e8f5e9" stroke="#388e3c" stroke-width="2"/>
  <text x="150" y="610" text-anchor="middle" font-size="14" fill="#2e7d32" font-weight="bold">Кухня</text>
  
  <!-- Meeting area -->
  <polygon points="350,500 450,500 480,650 320,650" fill="#fff3e0" stroke="#f57c00" stroke-width="2"/>
  <text x="400" y="580" text-anchor="middle" font-size="12" fill="#e65100" font-weight="bold">Зона встреч</text>
  
  <!-- Equipment room -->
  <rect x="550" y="500" width="120" height="120" fill="#fce4ec" stroke="#c2185b" stroke-width="2" rx="5"/>
  <text x="610" y="565" text-anchor="middle" font-size="12" fill="#ad1457" font-weight="bold">Техника</text>
  
  <!-- Bathroom -->
  <rect x="750" y="500" width="100" height="100" fill="#e0f2f1" stroke="#00796b" stroke-width="2" rx="5"/>
  <text x="800" y="560" text-anchor="middle" font-size="11" fill="#004d40" font-weight="bold">Санузел</text>
  
  <!-- Legend -->
  <text x="20" y="780" font-size="11" fill="#666">SVG План этажа - Примеры помещений и рабочих зон</text>
  
  <!-- Doors indication -->
  <line x1="250" y1="50" x2="250" y2="35" stroke="#333" stroke-width="2"/>
  <line x1="500" y1="50" x2="500" y2="35" stroke="#333" stroke-width="2"/>
</svg>
