<svg width="120" height="120" viewBox="0 0 120 120" fill="none" xmlns="http://www.w3.org/2000/svg">
<rect width="120" height="120" rx="19.245" fill="#D15DFF"/>
<path d="M74.8496 64.9824C76.538 64.9824 77.9072 66.3516 77.9072 68.04V92.9385C77.9072 94.6269 76.538 95.9961 74.8496 95.9961H44.0801C42.3917 95.9961 41.0225 94.6269 41.0225 92.9385V68.04C41.0225 66.3516 42.3917 64.9824 44.0801 64.9824H74.8496ZM88.6357 41.7451C91.4285 41.7454 93.6934 44.0099 93.6934 46.8027V74.5225C93.693 77.315 91.4283 79.5788 88.6357 79.5791H83.6592C82.5548 79.5791 81.6594 78.6834 81.6592 77.5791C81.6594 76.4747 82.5547 75.5791 83.6592 75.5791H88.6357C89.2192 75.5788 89.693 75.1059 89.6934 74.5225V46.8027C89.6934 46.219 89.2194 45.7454 88.6357 45.7451H31.3652C30.7814 45.7451 30.3076 46.2189 30.3076 46.8027V74.5225C30.3079 75.106 30.7816 75.5791 31.3652 75.5791H35.5322C36.6363 75.5796 37.532 76.475 37.5322 77.5791C37.532 78.6832 36.6362 79.5786 35.5322 79.5791H31.3652C28.5724 79.5791 26.307 77.3152 26.3066 74.5225V46.8027C26.3066 44.0097 28.5722 41.7451 31.3652 41.7451H88.6357ZM74.9072 24.0039C76.564 24.0039 77.9071 25.3472 77.9072 27.0039V34.0146C77.9071 35.6714 76.564 37.0146 74.9072 37.0146H44.0225C42.3657 37.0146 41.0226 35.6714 41.0225 34.0146V27.0039C41.0226 25.3472 42.3657 24.0039 44.0225 24.0039H74.9072Z" fill="white"/>
</svg>
