<svg width="100" height="100" viewBox="0 0 100 100" fill="none" xmlns="http://www.w3.org/2000/svg">
<rect width="100" height="100" rx="16.0375" fill="#AE95DF"/>
<path d="M62.3747 54.1522C63.7817 54.1522 64.9227 55.2932 64.9227 56.7002V77.4489C64.9227 78.8559 63.7817 79.9969 62.3747 79.9969H36.7334C35.3264 79.9969 34.1854 78.8559 34.1854 77.4489V56.7002C34.1854 55.2932 35.3264 54.1522 36.7334 54.1522H62.3747ZM73.8623 33.9536C76.65 33.9536 78.9103 36.2139 78.9103 39.0016V62.1014C78.9103 64.8891 76.65 67.1486 73.8623 67.1486H69.7152C68.3345 67.1486 67.2152 66.0293 67.2152 64.6486C67.2154 63.268 68.3346 62.1486 69.7152 62.1486H73.8623C73.8732 62.1486 73.8779 62.1471 73.8802 62.1462C73.8841 62.1445 73.8904 62.1409 73.8965 62.1348C73.9025 62.1287 73.9062 62.1232 73.9079 62.1193C73.9088 62.1171 73.9103 62.1125 73.9103 62.1014V39.0016C73.9103 38.9909 73.9088 38.986 73.9079 38.9837C73.9062 38.9798 73.9026 38.9736 73.8965 38.9674C73.8904 38.9613 73.8841 38.9577 73.8802 38.9561C73.8779 38.9551 73.873 38.9536 73.8623 38.9536H26.1369C26.1262 38.9536 26.1213 38.9551 26.119 38.9561C26.1151 38.9577 26.1088 38.9613 26.1027 38.9674C26.0966 38.9736 26.093 38.9798 26.0913 38.9837C26.0903 38.986 26.0889 38.9909 26.0889 39.0016V62.1014C26.0889 62.1125 26.0904 62.1171 26.0913 62.1193C26.093 62.1232 26.0967 62.1287 26.1027 62.1348C26.1088 62.1409 26.1151 62.1445 26.119 62.1462C26.1213 62.1471 26.126 62.1486 26.1369 62.1486H29.6094C30.9898 62.1488 32.1092 63.2682 32.1094 64.6486C32.1094 66.0292 30.9899 67.1484 29.6094 67.1486H26.1369C23.3492 67.1486 21.0889 64.8891 21.0889 62.1014V39.0016C21.0889 36.2139 23.3492 33.9536 26.1369 33.9536H73.8623ZM62.4227 20.0034C63.8034 20.0034 64.9227 21.1227 64.9227 22.5034V28.3449C64.9227 29.7256 63.8034 30.8449 62.4227 30.8449H36.6854C35.3047 30.8449 34.1854 29.7256 34.1854 28.3449V22.5034C34.1854 21.1227 35.3047 20.0034 36.6854 20.0034H62.4227Z" fill="white"/>
</svg>
